<svg xmlns="http://www.w3.org/2000/svg" xmlns:xlink="http://www.w3.org/1999/xlink" width="816" zoomAndPan="magnify" viewBox="0 0 612 791.999994" height="1056" preserveAspectRatio="xMidYMid meet" version="1.0"><path fill="#e76324" d="M 59.488281 639.671875 C 60.785156 637.109375 154.726562 456.585938 216.710938 386.726562 C 278.699219 316.867188 305.1875 289.265625 350.265625 337.714844 C 395.34375 386.164062 430.070312 408.929688 369.621094 463.742188 C 309.175781 518.558594 90.425781 660.277344 69.378906 661.738281 C 50.214844 663.027344 51.957031 654.464844 59.488281 639.671875 Z M 59.488281 639.671875 " fill-opacity="1" fill-rule="nonzero"/><path fill="#f47820" d="M 52.113281 633.527344 C 53.410156 630.964844 147.351562 450.441406 209.339844 380.582031 C 271.324219 310.722656 297.8125 283.125 342.890625 331.574219 C 387.972656 380.023438 422.695312 402.785156 362.246094 457.601562 C 301.800781 512.414062 81.957031 658.554688 60.84375 660.007812 C 41.71875 661.332031 44.613281 648.320312 52.113281 633.527344 Z M 52.113281 633.527344 " fill-opacity="1" fill-rule="nonzero"/><path fill="#75ab42" d="M 343.394531 331.921875 C 343.394531 331.921875 387.980469 299.996094 370.792969 263.6875 C 370.792969 263.6875 346.472656 269.414062 341.207031 264.539062 C 335.941406 259.664062 333.589844 252.40625 338.808594 247.859375 C 336.761719 247.675781 334.753906 247.292969 332.78125 246.703125 C 330.8125 246.113281 328.921875 245.332031 327.113281 244.359375 C 325.300781 243.386719 323.605469 242.246094 322.023438 240.929688 C 320.445312 239.617188 319.015625 238.15625 317.730469 236.550781 C 309.085938 225.667969 323.933594 220.964844 323.933594 220.964844 C 323.933594 220.964844 302.140625 212.703125 298.945312 198.996094 C 295.75 185.285156 313.976562 187.386719 313.976562 187.386719 C 313.976562 187.386719 305.332031 161.46875 312.464844 158.46875 C 319.09375 155.671875 331.714844 157.578125 336.792969 161.476562 C 337.164062 161.773438 337.511719 162.09375 337.832031 162.445312 C 337.832031 162.445312 343.464844 146.300781 353.238281 153.0625 C 363.011719 159.824219 366.574219 173.15625 366.574219 173.15625 C 366.574219 173.15625 379.347656 170.144531 382.542969 175.59375 C 385.734375 181.039062 391.550781 192.117188 390.234375 198.316406 C 388.917969 204.519531 399.640625 195.414062 402.816406 198.40625 C 405.992188 201.394531 414.980469 201.976562 402.304688 233.621094 C 389.625 265.265625 392.34375 257.089844 392.34375 257.089844 L 397.039062 292.207031 C 397.039062 292.207031 433.667969 261.976562 427.097656 229.867188 C 420.527344 197.757812 434.425781 184.230469 446.066406 202.253906 C 446.066406 202.253906 449.078125 159.070312 460.71875 159.445312 C 472.363281 159.824219 477.25 173.339844 477.25 173.339844 C 477.25 173.339844 495.636719 126.765625 506.371094 136.722656 C 507.953125 138.226562 509.375 139.875 510.636719 141.65625 C 511.902344 143.4375 512.984375 145.324219 513.882812 147.316406 C 514.777344 149.308594 515.476562 151.367188 515.976562 153.496094 C 516.476562 155.621094 516.769531 157.777344 516.851562 159.960938 C 516.851562 159.960938 539.390625 135.917969 551.417969 149.441406 L 355.707031 345.058594 Z M 343.394531 331.921875 " fill-opacity="1" fill-rule="nonzero"/><path fill="#4a8b40" d="M 367.714844 356.695312 C 367.714844 356.695312 399.652344 312.128906 435.972656 329.308594 C 435.972656 329.308594 430.242188 353.621094 435.132812 358.882812 C 440.019531 364.144531 447.257812 366.507812 451.804688 361.28125 C 451.988281 363.328125 452.375 365.335938 452.964844 367.304688 C 453.554688 369.273438 454.335938 371.164062 455.308594 372.972656 C 456.277344 374.785156 457.421875 376.480469 458.738281 378.058594 C 460.054688 379.636719 461.515625 381.070312 463.121094 382.351562 C 474.015625 390.992188 478.710938 376.160156 478.710938 376.160156 C 478.710938 376.160156 486.976562 397.9375 500.6875 401.132812 C 514.402344 404.324219 512.300781 386.117188 512.300781 386.117188 C 512.300781 386.117188 538.21875 394.746094 541.230469 387.617188 C 544.015625 380.988281 542.109375 368.382812 538.21875 363.296875 C 537.925781 362.921875 537.605469 362.578125 537.25 362.261719 C 537.25 362.261719 553.414062 356.628906 546.648438 346.867188 C 539.882812 337.105469 526.546875 333.535156 526.546875 333.535156 C 526.546875 333.535156 529.546875 320.765625 524.109375 317.574219 C 518.667969 314.382812 507.570312 308.558594 501.375 309.835938 C 495.183594 311.113281 504.277344 300.429688 501.277344 297.257812 C 498.277344 294.085938 497.707031 285.097656 466.0625 297.78125 C 434.414062 310.464844 442.574219 307.726562 442.574219 307.726562 L 407.519531 303.140625 C 407.519531 303.140625 437.761719 266.523438 469.882812 273.089844 C 502.003906 279.660156 515.535156 265.769531 497.496094 254.128906 C 497.496094 254.128906 540.707031 251.121094 540.328125 239.480469 C 539.953125 227.84375 526.421875 222.957031 526.421875 222.957031 C 526.421875 222.957031 573.011719 204.578125 563.050781 193.847656 C 561.542969 192.261719 559.898438 190.832031 558.113281 189.566406 C 556.328125 188.296875 554.4375 187.210938 552.441406 186.3125 C 550.445312 185.410156 548.378906 184.707031 546.25 184.207031 C 544.117188 183.707031 541.957031 183.414062 539.765625 183.332031 C 539.765625 183.332031 563.808594 160.800781 550.289062 148.785156 L 354.574219 344.390625 Z M 367.714844 356.695312 " fill-opacity="1" fill-rule="nonzero"/><path fill="#d35127" d="M 243.5 343.203125 C 243.5 343.203125 245.125 359.746094 264.851562 378.027344 C 284.574219 396.3125 284.292969 395.210938 284.292969 395.210938 C 284.292969 395.210938 231.714844 383.019531 223.140625 365.105469 Z M 243.5 343.203125 " fill-opacity="1" fill-rule="nonzero"/><path fill="#d35127" d="M 164.558594 440.699219 C 164.558594 440.699219 168.75 456.789062 191.085938 471.792969 C 213.421875 486.796875 212.976562 485.734375 212.976562 485.734375 C 212.976562 485.734375 159.140625 481.863281 147.863281 465.535156 Z M 164.558594 440.699219 " fill-opacity="1" fill-rule="nonzero"/><path fill="#d35127" d="M 321.222656 501.464844 C 321.222656 501.464844 304.769531 496.773438 289.800781 474.445312 C 274.828125 452.117188 275.855469 452.558594 275.855469 452.558594 C 275.855469 452.558594 281.011719 508.070312 297.386719 519.3125 Z M 321.222656 501.464844 " fill-opacity="1" fill-rule="nonzero"/><path fill="#d35127" d="M 223.546875 569.996094 C 223.546875 569.996094 207.34375 565.855469 195.421875 547.746094 C 183.5 529.636719 184.457031 529.957031 184.457031 529.957031 C 184.457031 529.957031 184.117188 577.890625 198.324219 586.203125 Z M 223.546875 569.996094 " fill-opacity="1" fill-rule="nonzero"/><path fill="#d35127" d="M 103.792969 539.511719 C 103.792969 539.511719 107.441406 552.515625 123.03125 562.886719 C 138.621094 573.257812 138.34375 572.464844 138.34375 572.464844 C 138.34375 572.464844 99.378906 571.875 91.886719 560.003906 Z M 103.792969 539.511719 " fill-opacity="1" fill-rule="nonzero"/></svg>