<svg xmlns="http://www.w3.org/2000/svg" xmlns:xlink="http://www.w3.org/1999/xlink" width="816" zoomAndPan="magnify" viewBox="0 0 612 791.999994" height="1056" preserveAspectRatio="xMidYMid meet" version="1.0"><defs><clipPath id="82bb1d44f1"><path d="M 266 78.914062 L 346 78.914062 L 346 130 L 266 130 Z M 266 78.914062 " clip-rule="nonzero"/></clipPath><clipPath id="00d35990ea"><path d="M 216.027344 145 L 392 145 L 392 699.914062 L 216.027344 699.914062 Z M 216.027344 145 " clip-rule="nonzero"/></clipPath><clipPath id="7976c9b554"><path d="M 216.027344 296 L 392 296 L 392 439 L 216.027344 439 Z M 216.027344 296 " clip-rule="nonzero"/></clipPath><clipPath id="4ca48c89b4"><path d="M 275 78.914062 L 278 78.914062 L 278 130 L 275 130 Z M 275 78.914062 " clip-rule="nonzero"/></clipPath><clipPath id="8c8df1ab6f"><path d="M 282 78.914062 L 284 78.914062 L 284 130 L 282 130 Z M 282 78.914062 " clip-rule="nonzero"/></clipPath><clipPath id="3351cb4497"><path d="M 288 78.914062 L 291 78.914062 L 291 130 L 288 130 Z M 288 78.914062 " clip-rule="nonzero"/></clipPath><clipPath id="39935deacb"><path d="M 295 78.914062 L 297 78.914062 L 297 130 L 295 130 Z M 295 78.914062 " clip-rule="nonzero"/></clipPath><clipPath id="1ad508dec5"><path d="M 301 78.914062 L 304 78.914062 L 304 130 L 301 130 Z M 301 78.914062 " clip-rule="nonzero"/></clipPath><clipPath id="debdd16ee3"><path d="M 308 78.914062 L 310 78.914062 L 310 130 L 308 130 Z M 308 78.914062 " clip-rule="nonzero"/></clipPath><clipPath id="6977d07b00"><path d="M 314 78.914062 L 317 78.914062 L 317 130 L 314 130 Z M 314 78.914062 " clip-rule="nonzero"/></clipPath><clipPath id="9a4f746558"><path d="M 321 78.914062 L 324 78.914062 L 324 130 L 321 130 Z M 321 78.914062 " clip-rule="nonzero"/></clipPath><clipPath id="da4aca5d4c"><path d="M 327 78.914062 L 330 78.914062 L 330 130 L 327 130 Z M 327 78.914062 " clip-rule="nonzero"/></clipPath><clipPath id="55b6dd1e80"><path d="M 334 78.914062 L 337 78.914062 L 337 130 L 334 130 Z M 334 78.914062 " clip-rule="nonzero"/></clipPath><clipPath id="a2e2d1c902"><path d="M 216.027344 381 L 392 381 L 392 409 L 216.027344 409 Z M 216.027344 381 " clip-rule="nonzero"/></clipPath></defs><path fill="#cae8ef" d="M 345.976562 140.753906 L 263.539062 140.753906 C 260.386719 140.753906 257.828125 138.195312 257.828125 135.042969 C 257.828125 131.890625 260.386719 129.332031 263.539062 129.332031 L 345.976562 129.332031 C 349.132812 129.332031 351.691406 131.890625 351.691406 135.042969 C 351.691406 138.195312 349.132812 140.753906 345.976562 140.753906 " fill-opacity="1" fill-rule="nonzero"/><g clip-path="url(#82bb1d44f1)"><path fill="#e30613" d="M 345.273438 89.335938 L 345.273438 129.328125 L 266.351562 129.328125 L 266.351562 89.335938 C 266.351562 86.6875 267.339844 84.265625 268.976562 82.425781 C 269.5 81.832031 270.097656 81.296875 270.746094 80.839844 C 272.125 79.855469 273.75 79.199219 275.511719 78.992188 C 275.925781 78.9375 276.347656 78.914062 276.773438 78.914062 L 334.855469 78.914062 C 335.28125 78.914062 335.707031 78.9375 336.117188 78.992188 C 337.882812 79.199219 339.507812 79.855469 340.886719 80.84375 C 341.539062 81.300781 342.136719 81.835938 342.660156 82.433594 C 344.289062 84.269531 345.273438 86.6875 345.273438 89.335938 " fill-opacity="1" fill-rule="nonzero"/></g><g clip-path="url(#00d35990ea)"><path fill="#cae8ef" d="M 355.148438 699.914062 C 351.839844 699.914062 348.515625 699.257812 345.371094 697.933594 C 339.820312 695.59375 333.769531 692.574219 331.335938 689.691406 C 331.003906 689.292969 330.527344 689.058594 330.007812 689.058594 C 329.0625 689.058594 328.300781 689.8125 328.300781 690.765625 L 328.300781 691.574219 C 328.300781 696.121094 324.613281 699.804688 320.070312 699.804688 L 288.109375 699.804688 C 283.566406 699.804688 279.878906 696.121094 279.878906 691.574219 L 279.878906 690.765625 C 279.878906 690.289062 279.691406 689.863281 279.378906 689.550781 C 279.070312 689.246094 278.648438 689.058594 278.171875 689.058594 C 277.652344 689.058594 277.175781 689.292969 276.84375 689.691406 C 274.410156 692.574219 268.359375 695.59375 262.796875 697.933594 C 259.664062 699.257812 256.335938 699.914062 253.023438 699.914062 C 247.777344 699.914062 242.578125 698.261719 238.273438 695 C 237.292969 694.261719 236.46875 693.515625 235.886719 692.773438 C 232.394531 688.351562 218.195312 664.851562 217.265625 637.851562 C 216.332031 610.859375 220.054688 595.730469 220.054688 595.730469 C 220.054688 595.730469 222.15625 587.355469 229.832031 540.34375 C 235.554688 505.3125 225.382812 466.539062 219.828125 449.054688 L 219.851562 449.128906 L 227.628906 449.128906 C 233.964844 469.695312 242.804688 506.992188 237.160156 541.539062 C 229.691406 587.242188 227.453125 596.75 227.265625 597.5 C 227.160156 597.945312 223.816406 612.4375 224.683594 637.601562 C 225.550781 662.660156 239.082031 684.84375 241.714844 688.175781 C 241.734375 688.199219 241.976562 688.492188 242.757812 689.085938 C 245.726562 691.332031 249.347656 692.492188 253.03125 692.492188 C 255.347656 692.492188 257.691406 692.03125 259.914062 691.09375 C 269.160156 687.203125 271.085938 685 271.164062 684.910156 C 272.921875 682.824219 275.476562 681.628906 278.171875 681.628906 C 280.582031 681.628906 282.863281 682.566406 284.589844 684.261719 L 284.628906 684.308594 C 286.359375 686.03125 287.304688 688.324219 287.304688 690.765625 L 287.304688 691.574219 C 287.304688 692.019531 287.667969 692.378906 288.109375 692.378906 L 320.070312 692.378906 C 320.511719 692.378906 320.875 692.019531 320.875 691.574219 L 320.875 690.765625 C 320.875 685.730469 324.972656 681.628906 330.007812 681.628906 C 332.703125 681.628906 335.257812 682.824219 337.015625 684.902344 C 337.09375 685 339.015625 687.199219 348.257812 691.09375 C 350.480469 692.03125 352.824219 692.492188 355.144531 692.492188 C 358.828125 692.492188 362.453125 691.332031 365.429688 689.082031 C 366.195312 688.5 366.441406 688.203125 366.453125 688.1875 C 369.09375 684.84375 382.628906 662.679688 383.496094 637.601562 C 384.371094 612.167969 380.941406 597.632812 380.90625 597.488281 C 380.71875 596.722656 378.472656 587.175781 371.011719 541.539062 C 365.371094 506.996094 374.214844 469.695312 380.550781 449.128906 L 388.328125 449.128906 L 388.351562 449.054688 C 382.796875 466.539062 372.621094 505.3125 378.339844 540.34375 C 386.023438 587.355469 388.121094 595.730469 388.121094 595.730469 C 388.121094 595.730469 391.847656 610.859375 390.914062 637.851562 C 389.984375 664.851562 375.785156 688.351562 372.289062 692.773438 C 371.707031 693.515625 370.878906 694.261719 369.90625 695 C 365.597656 698.261719 360.402344 699.914062 355.148438 699.914062 M 391.917969 297.429688 C 391.917969 296.996094 391.917969 296.550781 391.914062 296.085938 L 384.488281 296.085938 C 384.300781 279.957031 380.519531 248.703125 357.417969 219.875 C 353.183594 214.589844 349.347656 209.15625 346.015625 203.726562 L 345.953125 203.625 C 345.863281 203.472656 345.769531 203.324219 345.675781 203.167969 C 345 202.050781 344.359375 200.945312 343.730469 199.84375 C 343.726562 199.746094 343.703125 199.644531 343.648438 199.558594 L 343.644531 199.554688 L 343.492188 199.382812 C 340.984375 197.609375 324.296875 196.234375 304.089844 196.234375 C 283.882812 196.234375 267.195312 197.609375 264.6875 199.382812 L 264.535156 199.554688 L 264.53125 199.558594 C 264.476562 199.644531 264.453125 199.746094 264.449219 199.84375 C 263.820312 200.945312 263.175781 202.050781 262.496094 203.171875 C 262.410156 203.328125 262.316406 203.472656 262.226562 203.625 L 262.164062 203.726562 C 258.84375 209.140625 255.003906 214.574219 250.757812 219.875 C 227.640625 248.734375 223.875 279.976562 223.691406 296.085938 L 216.265625 296.085938 C 216.261719 296.550781 216.261719 296.996094 216.261719 297.429688 C 216.261719 296.996094 216.261719 296.550781 216.265625 296.085938 C 216.429688 280.445312 220.011719 246.382812 244.964844 215.234375 C 249.210938 209.9375 252.800781 204.789062 255.828125 199.84375 C 255.933594 199.683594 256.027344 199.53125 256.121094 199.375 C 271.417969 174.199219 272.261719 154.257812 271.65625 145.535156 L 336.523438 145.535156 C 335.917969 154.257812 336.761719 174.199219 352.058594 199.375 C 352.152344 199.53125 352.25 199.683594 352.351562 199.84375 C 355.378906 204.789062 358.964844 209.9375 363.210938 215.234375 C 388.167969 246.371094 391.746094 280.433594 391.914062 296.085938 C 391.917969 296.550781 391.917969 296.996094 391.917969 297.429688 " fill-opacity="1" fill-rule="nonzero"/></g><path fill="#3e1614" d="M 253.03125 692.492188 C 249.347656 692.492188 245.726562 691.332031 242.757812 689.085938 C 241.976562 688.492188 241.734375 688.199219 241.714844 688.175781 C 239.082031 684.84375 225.550781 662.660156 224.683594 637.601562 C 223.816406 612.4375 227.160156 597.945312 227.265625 597.5 C 227.453125 596.75 229.691406 587.242188 237.160156 541.539062 C 242.804688 506.992188 233.964844 469.695312 227.628906 449.128906 L 380.550781 449.128906 C 374.214844 469.695312 365.371094 506.996094 371.011719 541.539062 C 378.472656 587.175781 380.71875 596.722656 380.90625 597.488281 C 380.941406 597.632812 384.371094 612.167969 383.496094 637.601562 C 382.628906 662.679688 369.09375 684.84375 366.453125 688.1875 C 366.441406 688.203125 366.195312 688.5 365.429688 689.082031 C 362.453125 691.332031 358.828125 692.492188 355.144531 692.492188 C 352.824219 692.492188 350.480469 692.03125 348.257812 691.09375 C 339.015625 687.199219 337.09375 685 337.015625 684.902344 C 335.257812 682.824219 332.703125 681.628906 330.007812 681.628906 C 324.972656 681.628906 320.875 685.730469 320.875 690.765625 L 320.875 691.574219 C 320.875 692.019531 320.511719 692.378906 320.070312 692.378906 L 288.109375 692.378906 C 287.667969 692.378906 287.304688 692.019531 287.304688 691.574219 L 287.304688 690.765625 C 287.304688 688.324219 286.359375 686.03125 284.628906 684.308594 L 284.589844 684.261719 C 282.863281 682.566406 280.582031 681.628906 278.171875 681.628906 C 275.476562 681.628906 272.921875 682.824219 271.164062 684.910156 C 271.085938 685 269.160156 687.203125 259.914062 691.09375 C 257.691406 692.03125 255.347656 692.492188 253.03125 692.492188 M 351.457031 665.003906 C 349.75 665.003906 348.359375 666.390625 348.359375 668.101562 C 348.359375 669.8125 349.75 671.199219 351.457031 671.199219 C 353.171875 671.199219 354.558594 669.8125 354.558594 668.101562 C 354.558594 666.390625 353.171875 665.003906 351.457031 665.003906 M 269.699219 656.664062 C 267.894531 656.664062 266.433594 658.128906 266.433594 659.933594 C 266.433594 661.738281 267.894531 663.203125 269.699219 663.203125 C 271.507812 663.203125 272.96875 661.738281 272.96875 659.933594 C 272.96875 658.128906 271.507812 656.664062 269.699219 656.664062 M 241.78125 652.359375 C 239.691406 652.359375 237.996094 654.054688 237.996094 656.148438 C 237.996094 658.234375 239.691406 659.933594 241.78125 659.933594 C 243.871094 659.933594 245.566406 658.234375 245.566406 656.148438 C 245.566406 654.054688 243.871094 652.359375 241.78125 652.359375 M 311.523438 653.90625 C 310.292969 653.90625 309.289062 654.910156 309.289062 656.148438 C 309.289062 657.382812 310.292969 658.386719 311.523438 658.386719 C 312.761719 658.386719 313.765625 657.382812 313.765625 656.148438 C 313.765625 654.910156 312.761719 653.90625 311.523438 653.90625 M 294.832031 632.996094 C 292.640625 632.996094 290.871094 634.769531 290.871094 636.957031 C 290.871094 639.140625 292.640625 640.914062 294.832031 640.914062 C 297.019531 640.914062 298.789062 639.140625 298.789062 636.957031 C 298.789062 634.769531 297.019531 632.996094 294.832031 632.996094 M 334.507812 630.933594 C 332.84375 630.933594 331.492188 632.277344 331.492188 633.941406 C 331.492188 635.605469 332.84375 636.957031 334.507812 636.957031 C 336.167969 636.957031 337.515625 635.605469 337.515625 633.941406 C 337.515625 632.277344 336.167969 630.933594 334.507812 630.933594 M 260.0625 613.039062 C 258.828125 613.039062 257.824219 614.039062 257.824219 615.273438 C 257.824219 616.511719 258.828125 617.511719 260.0625 617.511719 C 261.296875 617.511719 262.296875 616.511719 262.296875 615.273438 C 262.296875 614.039062 261.296875 613.039062 260.0625 613.039062 M 356 605.390625 C 354.480469 605.390625 353.242188 606.625 353.242188 608.140625 C 353.242188 609.664062 354.480469 610.898438 356 610.898438 C 357.519531 610.898438 358.753906 609.664062 358.753906 608.140625 C 358.753906 606.625 357.519531 605.390625 356 605.390625 M 306.757812 600.992188 C 305.332031 600.992188 304.175781 602.144531 304.175781 603.574219 C 304.175781 605 305.332031 606.152344 306.757812 606.152344 C 308.1875 606.152344 309.339844 605 309.339844 603.574219 C 309.339844 602.144531 308.1875 600.992188 306.757812 600.992188 M 245.566406 588.945312 C 242.335938 588.945312 239.71875 591.566406 239.71875 594.796875 C 239.71875 598.027344 242.335938 600.648438 245.566406 600.648438 C 248.796875 600.648438 251.417969 598.027344 251.417969 594.796875 C 251.417969 591.566406 248.796875 588.945312 245.566406 588.945312 M 331.492188 583.78125 C 328.449219 583.78125 325.984375 586.246094 325.984375 589.289062 C 325.984375 592.332031 328.449219 594.796875 331.492188 594.796875 C 334.535156 594.796875 337 592.332031 337 589.289062 C 337 586.246094 334.535156 583.78125 331.492188 583.78125 M 282.4375 580 C 281.394531 580 280.542969 580.84375 280.542969 581.890625 C 280.542969 582.933594 281.394531 583.78125 282.4375 583.78125 C 283.484375 583.78125 284.328125 582.933594 284.328125 581.890625 C 284.328125 580.84375 283.484375 580 282.4375 580 M 346.292969 561.703125 C 344.390625 561.703125 342.851562 563.246094 342.851562 565.148438 C 342.851562 567.050781 344.390625 568.585938 346.292969 568.585938 C 348.195312 568.585938 349.738281 567.050781 349.738281 565.148438 C 349.738281 563.246094 348.195312 561.703125 346.292969 561.703125 M 319.1875 558.65625 C 316.761719 558.65625 314.796875 560.621094 314.796875 563.046875 C 314.796875 565.472656 316.761719 567.433594 319.1875 567.433594 C 321.609375 567.433594 323.574219 565.472656 323.574219 563.046875 C 323.574219 560.621094 321.609375 558.65625 319.1875 558.65625 M 272.96875 528.742188 C 269.074219 528.742188 265.914062 531.898438 265.914062 535.796875 C 265.914062 539.691406 269.074219 542.851562 272.96875 542.851562 C 276.871094 542.851562 280.03125 539.691406 280.03125 535.796875 C 280.03125 531.898438 276.871094 528.742188 272.96875 528.742188 M 341.128906 511.019531 C 338.5625 511.019531 336.480469 513.101562 336.480469 515.667969 C 336.480469 518.234375 338.5625 520.308594 341.128906 520.308594 C 343.699219 520.308594 345.78125 518.234375 345.78125 515.667969 C 345.78125 513.101562 343.699219 511.019531 341.128906 511.019531 M 314.796875 507.75 C 312.988281 507.75 311.523438 509.214844 311.523438 511.019531 C 311.523438 512.824219 312.988281 514.289062 314.796875 514.289062 C 316.605469 514.289062 318.066406 512.824219 318.066406 511.019531 C 318.066406 509.214844 316.605469 507.75 314.796875 507.75 M 287.441406 486.644531 C 286.351562 486.644531 285.476562 487.527344 285.476562 488.609375 C 285.476562 489.695312 286.351562 490.574219 287.441406 490.574219 C 288.523438 490.574219 289.40625 489.695312 289.40625 488.609375 C 289.40625 487.527344 288.523438 486.644531 287.441406 486.644531 M 257.65625 472.273438 C 255.085938 472.273438 253.003906 474.355469 253.003906 476.917969 C 253.003906 479.484375 255.085938 481.566406 257.65625 481.566406 C 260.222656 481.566406 262.296875 479.484375 262.296875 476.917969 C 262.296875 474.355469 260.222656 472.273438 257.65625 472.273438 M 287.722656 476.917969 C 286.726562 476.917969 285.917969 477.726562 285.917969 478.722656 C 285.917969 479.714844 286.726562 480.527344 287.722656 480.527344 C 288.714844 480.527344 289.523438 479.714844 289.523438 478.722656 C 289.523438 477.726562 288.714844 476.917969 287.722656 476.917969 M 346.292969 468.144531 C 343.445312 468.144531 341.128906 470.457031 341.128906 473.308594 C 341.128906 476.15625 343.445312 478.46875 346.292969 478.46875 C 349.148438 478.46875 351.457031 476.15625 351.457031 473.308594 C 351.457031 470.457031 349.148438 468.144531 346.292969 468.144531 M 315.804688 455.414062 C 313.9375 455.414062 312.421875 456.929688 312.421875 458.796875 C 312.421875 460.664062 313.9375 462.179688 315.804688 462.179688 C 317.671875 462.179688 319.1875 460.664062 319.1875 458.796875 C 319.1875 456.929688 317.671875 455.414062 315.804688 455.414062 M 384.488281 296.085938 L 223.691406 296.085938 C 223.875 279.976562 227.640625 248.734375 250.757812 219.875 C 255.003906 214.574219 258.84375 209.140625 262.164062 203.726562 L 262.226562 203.625 C 262.316406 203.472656 262.410156 203.328125 262.496094 203.171875 C 263.175781 202.050781 263.820312 200.945312 264.449219 199.84375 C 264.449219 199.847656 264.449219 199.847656 264.449219 199.855469 C 264.449219 200.027344 264.519531 200.195312 264.671875 200.300781 C 267.132812 202.078125 283.839844 203.453125 304.089844 203.453125 C 324.339844 203.453125 341.046875 202.078125 343.507812 200.300781 C 343.660156 200.195312 343.730469 200.027344 343.730469 199.855469 C 343.730469 199.847656 343.730469 199.847656 343.730469 199.84375 C 344.359375 200.945312 345 202.050781 345.675781 203.167969 C 345.769531 203.324219 345.863281 203.472656 345.953125 203.625 L 346.015625 203.726562 C 349.347656 209.15625 353.183594 214.589844 357.417969 219.875 C 380.519531 248.703125 384.300781 279.957031 384.488281 296.085938 M 239.875 287.460938 C 238.355469 287.460938 237.121094 288.691406 237.121094 290.214844 C 237.121094 291.734375 238.355469 292.964844 239.875 292.964844 C 241.394531 292.964844 242.625 291.734375 242.625 290.214844 C 242.625 288.691406 241.394531 287.460938 239.875 287.460938 M 359.09375 279.226562 C 355.769531 279.226562 353.074219 281.921875 353.074219 285.246094 C 353.074219 288.574219 355.769531 291.273438 359.09375 291.273438 C 362.425781 291.273438 365.121094 288.574219 365.121094 285.246094 C 365.121094 281.921875 362.425781 279.226562 359.09375 279.226562 M 324.820312 285.046875 C 323.109375 285.046875 321.71875 286.433594 321.71875 288.148438 C 321.71875 289.855469 323.109375 291.242188 324.820312 291.242188 C 326.527344 291.242188 327.917969 289.855469 327.917969 288.148438 C 327.917969 286.433594 326.527344 285.046875 324.820312 285.046875 M 304.230469 283.363281 C 303.300781 283.363281 302.546875 284.121094 302.546875 285.046875 C 302.546875 285.980469 303.300781 286.730469 304.230469 286.730469 C 305.15625 286.730469 305.914062 285.980469 305.914062 285.046875 C 305.914062 284.121094 305.15625 283.363281 304.230469 283.363281 M 262.257812 278.421875 C 261.269531 278.421875 260.46875 279.226562 260.46875 280.214844 C 260.46875 281.210938 261.269531 282.011719 262.257812 282.011719 C 263.253906 282.011719 264.054688 281.210938 264.054688 280.214844 C 264.054688 279.226562 263.253906 278.421875 262.257812 278.421875 M 335.621094 278.90625 C 334.898438 278.90625 334.3125 279.492188 334.3125 280.214844 C 334.3125 280.9375 334.898438 281.527344 335.621094 281.527344 C 336.347656 281.527344 336.933594 280.9375 336.933594 280.214844 C 336.933594 279.492188 336.347656 278.90625 335.621094 278.90625 M 291.40625 263.671875 C 289.851562 263.671875 288.601562 264.929688 288.601562 266.476562 C 288.601562 268.027344 289.851562 269.28125 291.40625 269.28125 C 292.953125 269.28125 294.210938 268.027344 294.210938 266.476562 C 294.210938 264.929688 292.953125 263.671875 291.40625 263.671875 M 334.3125 264.792969 C 333.386719 264.792969 332.628906 265.550781 332.628906 266.476562 C 332.628906 267.40625 333.386719 268.160156 334.3125 268.160156 C 335.246094 268.160156 335.996094 267.40625 335.996094 266.476562 C 335.996094 265.550781 335.246094 264.792969 334.3125 264.792969 M 359.09375 257.503906 C 357.386719 257.503906 356 258.894531 356 260.601562 C 356 262.3125 357.386719 263.699219 359.09375 263.699219 C 360.808594 263.699219 362.195312 262.3125 362.195312 260.601562 C 362.195312 258.894531 360.808594 257.503906 359.09375 257.503906 M 348.890625 253.394531 C 347.753906 253.394531 346.835938 254.316406 346.835938 255.453125 C 346.835938 256.582031 347.753906 257.503906 348.890625 257.503906 C 350.027344 257.503906 350.949219 256.582031 350.949219 255.453125 C 350.949219 254.316406 350.027344 253.394531 348.890625 253.394531 M 290.890625 243.71875 C 289.34375 243.71875 288.085938 244.972656 288.085938 246.523438 C 288.085938 248.074219 289.34375 249.332031 290.890625 249.332031 C 292.4375 249.332031 293.695312 248.074219 293.695312 246.523438 C 293.695312 244.972656 292.4375 243.71875 290.890625 243.71875 M 254.382812 235.671875 C 251.054688 235.671875 248.355469 238.371094 248.355469 241.699219 C 248.355469 245.023438 251.054688 247.71875 254.382812 247.71875 C 257.707031 247.71875 260.40625 245.023438 260.40625 241.699219 C 260.40625 238.371094 257.707031 235.671875 254.382812 235.671875 M 273.121094 235.671875 C 271.878906 235.671875 270.875 236.683594 270.875 237.917969 C 270.875 239.15625 271.878906 240.160156 273.121094 240.160156 C 274.355469 240.160156 275.363281 239.15625 275.363281 237.917969 C 275.363281 236.683594 274.355469 235.671875 273.121094 235.671875 M 345.992188 228.59375 C 344.390625 228.59375 343.089844 229.894531 343.089844 231.496094 C 343.089844 233.097656 344.390625 234.394531 345.992188 234.394531 C 347.59375 234.394531 348.890625 233.097656 348.890625 231.496094 C 348.890625 229.894531 347.59375 228.59375 345.992188 228.59375 M 318.066406 220.152344 C 314.660156 220.152344 311.894531 222.914062 311.894531 226.324219 C 311.894531 229.734375 314.660156 232.496094 318.066406 232.496094 C 321.476562 232.496094 324.242188 229.734375 324.242188 226.324219 C 324.242188 222.914062 321.476562 220.152344 318.066406 220.152344 M 267.058594 210.925781 C 265.199219 210.925781 263.691406 212.433594 263.691406 214.292969 C 263.691406 216.152344 265.199219 217.660156 267.058594 217.660156 C 268.917969 217.660156 270.425781 216.152344 270.425781 214.292969 C 270.425781 212.433594 268.917969 210.925781 267.058594 210.925781 " fill-opacity="1" fill-rule="nonzero"/><g clip-path="url(#7976c9b554)"><path fill="#e30613" d="M 391.613281 304.832031 L 391.613281 427.984375 C 391.613281 431.625 391.328125 435.253906 390.765625 438.835938 L 217.414062 438.835938 C 216.847656 435.253906 216.566406 431.625 216.566406 427.984375 L 216.566406 304.832031 C 216.566406 304.832031 216.203125 301.605469 216.265625 296.085938 L 391.914062 296.085938 C 391.976562 301.605469 391.613281 304.832031 391.613281 304.832031 " fill-opacity="1" fill-rule="nonzero"/></g><path fill="#acc5cb" d="M 388.328125 449.128906 L 380.550781 449.128906 C 380.796875 448.328125 381.039062 447.550781 381.277344 446.804688 C 382.101562 444.199219 382.761719 441.519531 383.238281 438.835938 L 390.765625 438.835938 C 390.21875 442.292969 389.410156 445.707031 388.351562 449.054688 L 388.328125 449.128906 " fill-opacity="1" fill-rule="nonzero"/><path fill="#acc5cb" d="M 227.628906 449.128906 L 219.851562 449.128906 L 219.828125 449.054688 C 218.765625 445.707031 217.960938 442.292969 217.414062 438.835938 L 224.941406 438.835938 C 225.421875 441.542969 226.078125 444.21875 226.902344 446.800781 C 227.140625 447.550781 227.382812 448.328125 227.628906 449.128906 " fill-opacity="1" fill-rule="nonzero"/><path fill="#341311" d="M 380.550781 449.128906 L 227.628906 449.128906 C 227.382812 448.328125 227.140625 447.550781 226.902344 446.800781 C 226.078125 444.21875 225.421875 441.542969 224.941406 438.835938 L 383.238281 438.835938 C 382.761719 441.519531 382.101562 444.199219 381.277344 446.804688 C 381.039062 447.550781 380.796875 448.328125 380.550781 449.128906 " fill-opacity="1" fill-rule="nonzero"/><path fill="#acc5cb" d="M 336.523438 145.535156 L 271.65625 145.535156 C 271.589844 144.695312 271.519531 143.953125 271.445312 143.324219 C 271.246094 141.675781 271.042969 140.785156 271.035156 140.753906 L 337.144531 140.753906 C 337.136719 140.785156 336.929688 141.675781 336.734375 143.324219 C 336.660156 143.953125 336.589844 144.695312 336.523438 145.535156 " fill-opacity="1" fill-rule="nonzero"/><path fill="#c10510" d="M 270.746094 129.328125 L 268.976562 129.328125 L 268.976562 82.425781 C 269.5 81.832031 270.097656 81.296875 270.746094 80.839844 L 270.746094 129.328125 " fill-opacity="1" fill-rule="nonzero"/><g clip-path="url(#4ca48c89b4)"><path fill="#c10510" d="M 277.285156 129.328125 L 275.511719 129.328125 L 275.511719 78.992188 C 275.925781 78.9375 276.347656 78.914062 276.773438 78.914062 L 277.285156 78.914062 L 277.285156 129.328125 " fill-opacity="1" fill-rule="nonzero"/></g><g clip-path="url(#8c8df1ab6f)"><path fill="#c10510" d="M 282.050781 129.328125 L 283.820312 129.328125 L 283.820312 78.914062 L 282.050781 78.914062 Z M 282.050781 129.328125 " fill-opacity="1" fill-rule="nonzero"/></g><g clip-path="url(#3351cb4497)"><path fill="#c10510" d="M 288.585938 129.328125 L 290.355469 129.328125 L 290.355469 78.914062 L 288.585938 78.914062 Z M 288.585938 129.328125 " fill-opacity="1" fill-rule="nonzero"/></g><g clip-path="url(#39935deacb)"><path fill="#c10510" d="M 295.128906 129.328125 L 296.898438 129.328125 L 296.898438 78.914062 L 295.128906 78.914062 Z M 295.128906 129.328125 " fill-opacity="1" fill-rule="nonzero"/></g><g clip-path="url(#1ad508dec5)"><path fill="#c10510" d="M 301.664062 129.328125 L 303.433594 129.328125 L 303.433594 78.914062 L 301.664062 78.914062 Z M 301.664062 129.328125 " fill-opacity="1" fill-rule="nonzero"/></g><g clip-path="url(#debdd16ee3)"><path fill="#c10510" d="M 308.199219 129.328125 L 309.972656 129.328125 L 309.972656 78.914062 L 308.199219 78.914062 Z M 308.199219 129.328125 " fill-opacity="1" fill-rule="nonzero"/></g><g clip-path="url(#6977d07b00)"><path fill="#c10510" d="M 314.738281 129.328125 L 316.507812 129.328125 L 316.507812 78.914062 L 314.738281 78.914062 Z M 314.738281 129.328125 " fill-opacity="1" fill-rule="nonzero"/></g><g clip-path="url(#9a4f746558)"><path fill="#c10510" d="M 321.273438 129.328125 L 323.042969 129.328125 L 323.042969 78.914062 L 321.273438 78.914062 Z M 321.273438 129.328125 " fill-opacity="1" fill-rule="nonzero"/></g><g clip-path="url(#da4aca5d4c)"><path fill="#c10510" d="M 327.816406 129.328125 L 329.582031 129.328125 L 329.582031 78.914062 L 327.816406 78.914062 Z M 327.816406 129.328125 " fill-opacity="1" fill-rule="nonzero"/></g><g clip-path="url(#55b6dd1e80)"><path fill="#c10510" d="M 336.117188 129.328125 L 334.351562 129.328125 L 334.351562 78.914062 L 334.855469 78.914062 C 335.28125 78.914062 335.707031 78.9375 336.117188 78.992188 L 336.117188 129.328125 " fill-opacity="1" fill-rule="nonzero"/></g><path fill="#c10510" d="M 342.660156 129.328125 L 340.886719 129.328125 L 340.886719 80.84375 C 341.539062 81.300781 342.136719 81.835938 342.660156 82.433594 L 342.660156 129.328125 " fill-opacity="1" fill-rule="nonzero"/><path fill="#5a3836" d="M 239.875 292.964844 C 238.355469 292.964844 237.121094 291.734375 237.121094 290.214844 C 237.121094 288.691406 238.355469 287.460938 239.875 287.460938 C 241.394531 287.460938 242.625 288.691406 242.625 290.214844 C 242.625 291.734375 241.394531 292.964844 239.875 292.964844 " fill-opacity="1" fill-rule="nonzero"/><path fill="#5a3836" d="M 272.96875 542.851562 C 269.074219 542.851562 265.914062 539.691406 265.914062 535.796875 C 265.914062 531.898438 269.074219 528.742188 272.96875 528.742188 C 276.871094 528.742188 280.03125 531.898438 280.03125 535.796875 C 280.03125 539.691406 276.871094 542.851562 272.96875 542.851562 " fill-opacity="1" fill-rule="nonzero"/><path fill="#5a3836" d="M 359.09375 263.699219 C 357.386719 263.699219 356 262.3125 356 260.601562 C 356 258.894531 357.386719 257.503906 359.09375 257.503906 C 360.808594 257.503906 362.195312 258.894531 362.195312 260.601562 C 362.195312 262.3125 360.808594 263.699219 359.09375 263.699219 " fill-opacity="1" fill-rule="nonzero"/><path fill="#5a3836" d="M 359.09375 291.273438 C 355.769531 291.273438 353.074219 288.574219 353.074219 285.246094 C 353.074219 281.921875 355.769531 279.226562 359.09375 279.226562 C 362.425781 279.226562 365.121094 281.921875 365.121094 285.246094 C 365.121094 288.574219 362.425781 291.273438 359.09375 291.273438 " fill-opacity="1" fill-rule="nonzero"/><path fill="#5a3836" d="M 324.820312 291.242188 C 323.109375 291.242188 321.71875 289.855469 321.71875 288.148438 C 321.71875 286.433594 323.109375 285.046875 324.820312 285.046875 C 326.527344 285.046875 327.917969 286.433594 327.917969 288.148438 C 327.917969 289.855469 326.527344 291.242188 324.820312 291.242188 " fill-opacity="1" fill-rule="nonzero"/><path fill="#5a3836" d="M 254.382812 247.71875 C 251.054688 247.71875 248.355469 245.023438 248.355469 241.699219 C 248.355469 238.371094 251.054688 235.671875 254.382812 235.671875 C 257.707031 235.671875 260.40625 238.371094 260.40625 241.699219 C 260.40625 245.023438 257.707031 247.71875 254.382812 247.71875 " fill-opacity="1" fill-rule="nonzero"/><path fill="#5a3836" d="M 356 610.898438 C 354.480469 610.898438 353.242188 609.664062 353.242188 608.140625 C 353.242188 606.625 354.480469 605.390625 356 605.390625 C 357.519531 605.390625 358.753906 606.625 358.753906 608.140625 C 358.753906 609.664062 357.519531 610.898438 356 610.898438 " fill-opacity="1" fill-rule="nonzero"/><path fill="#5a3836" d="M 346.292969 568.585938 C 344.390625 568.585938 342.851562 567.050781 342.851562 565.148438 C 342.851562 563.246094 344.390625 561.703125 346.292969 561.703125 C 348.195312 561.703125 349.738281 563.246094 349.738281 565.148438 C 349.738281 567.050781 348.195312 568.585938 346.292969 568.585938 " fill-opacity="1" fill-rule="nonzero"/><path fill="#5a3836" d="M 257.65625 481.566406 C 255.085938 481.566406 253.003906 479.484375 253.003906 476.917969 C 253.003906 474.355469 255.085938 472.273438 257.65625 472.273438 C 260.222656 472.273438 262.296875 474.355469 262.296875 476.917969 C 262.296875 479.484375 260.222656 481.566406 257.65625 481.566406 " fill-opacity="1" fill-rule="nonzero"/><path fill="#5a3836" d="M 314.796875 514.289062 C 312.988281 514.289062 311.523438 512.824219 311.523438 511.019531 C 311.523438 509.214844 312.988281 507.75 314.796875 507.75 C 316.605469 507.75 318.066406 509.214844 318.066406 511.019531 C 318.066406 512.824219 316.605469 514.289062 314.796875 514.289062 " fill-opacity="1" fill-rule="nonzero"/><path fill="#5a3836" d="M 341.128906 520.308594 C 338.5625 520.308594 336.480469 518.234375 336.480469 515.667969 C 336.480469 513.101562 338.5625 511.019531 341.128906 511.019531 C 343.699219 511.019531 345.78125 513.101562 345.78125 515.667969 C 345.78125 518.234375 343.699219 520.308594 341.128906 520.308594 " fill-opacity="1" fill-rule="nonzero"/><path fill="#5a3836" d="M 245.566406 600.648438 C 242.335938 600.648438 239.71875 598.027344 239.71875 594.796875 C 239.71875 591.566406 242.335938 588.945312 245.566406 588.945312 C 248.796875 588.945312 251.417969 591.566406 251.417969 594.796875 C 251.417969 598.027344 248.796875 600.648438 245.566406 600.648438 " fill-opacity="1" fill-rule="nonzero"/><path fill="#5a3836" d="M 331.492188 594.796875 C 328.449219 594.796875 325.984375 592.332031 325.984375 589.289062 C 325.984375 586.246094 328.449219 583.78125 331.492188 583.78125 C 334.535156 583.78125 337 586.246094 337 589.289062 C 337 592.332031 334.535156 594.796875 331.492188 594.796875 " fill-opacity="1" fill-rule="nonzero"/><path fill="#5a3836" d="M 306.757812 606.152344 C 305.332031 606.152344 304.175781 605 304.175781 603.574219 C 304.175781 602.144531 305.332031 600.992188 306.757812 600.992188 C 308.1875 600.992188 309.339844 602.144531 309.339844 603.574219 C 309.339844 605 308.1875 606.152344 306.757812 606.152344 " fill-opacity="1" fill-rule="nonzero"/><path fill="#5a3836" d="M 311.523438 658.386719 C 310.292969 658.386719 309.289062 657.382812 309.289062 656.148438 C 309.289062 654.910156 310.292969 653.90625 311.523438 653.90625 C 312.761719 653.90625 313.765625 654.910156 313.765625 656.148438 C 313.765625 657.382812 312.761719 658.386719 311.523438 658.386719 " fill-opacity="1" fill-rule="nonzero"/><path fill="#5a3836" d="M 269.699219 663.203125 C 267.894531 663.203125 266.433594 661.738281 266.433594 659.933594 C 266.433594 658.128906 267.894531 656.664062 269.699219 656.664062 C 271.507812 656.664062 272.96875 658.128906 272.96875 659.933594 C 272.96875 661.738281 271.507812 663.203125 269.699219 663.203125 " fill-opacity="1" fill-rule="nonzero"/><path fill="#5a3836" d="M 319.1875 567.433594 C 316.761719 567.433594 314.796875 565.472656 314.796875 563.046875 C 314.796875 560.621094 316.761719 558.65625 319.1875 558.65625 C 321.609375 558.65625 323.574219 560.621094 323.574219 563.046875 C 323.574219 565.472656 321.609375 567.433594 319.1875 567.433594 " fill-opacity="1" fill-rule="nonzero"/><path fill="#5a3836" d="M 334.507812 636.957031 C 332.84375 636.957031 331.492188 635.605469 331.492188 633.941406 C 331.492188 632.277344 332.84375 630.933594 334.507812 630.933594 C 336.167969 630.933594 337.515625 632.277344 337.515625 633.941406 C 337.515625 635.605469 336.167969 636.957031 334.507812 636.957031 " fill-opacity="1" fill-rule="nonzero"/><path fill="#5a3836" d="M 351.457031 671.199219 C 349.75 671.199219 348.359375 669.8125 348.359375 668.101562 C 348.359375 666.390625 349.75 665.003906 351.457031 665.003906 C 353.171875 665.003906 354.558594 666.390625 354.558594 668.101562 C 354.558594 669.8125 353.171875 671.199219 351.457031 671.199219 " fill-opacity="1" fill-rule="nonzero"/><path fill="#5a3836" d="M 294.832031 640.914062 C 292.640625 640.914062 290.871094 639.140625 290.871094 636.957031 C 290.871094 634.769531 292.640625 632.996094 294.832031 632.996094 C 297.019531 632.996094 298.789062 634.769531 298.789062 636.957031 C 298.789062 639.140625 297.019531 640.914062 294.832031 640.914062 " fill-opacity="1" fill-rule="nonzero"/><path fill="#5a3836" d="M 241.78125 659.933594 C 239.691406 659.933594 237.996094 658.234375 237.996094 656.148438 C 237.996094 654.054688 239.691406 652.359375 241.78125 652.359375 C 243.871094 652.359375 245.566406 654.054688 245.566406 656.148438 C 245.566406 658.234375 243.871094 659.933594 241.78125 659.933594 " fill-opacity="1" fill-rule="nonzero"/><path fill="#5a3836" d="M 260.0625 617.511719 C 258.828125 617.511719 257.824219 616.511719 257.824219 615.273438 C 257.824219 614.039062 258.828125 613.039062 260.0625 613.039062 C 261.296875 613.039062 262.296875 614.039062 262.296875 615.273438 C 262.296875 616.511719 261.296875 617.511719 260.0625 617.511719 " fill-opacity="1" fill-rule="nonzero"/><path fill="#5a3836" d="M 282.4375 583.78125 C 281.394531 583.78125 280.542969 582.933594 280.542969 581.890625 C 280.542969 580.84375 281.394531 580 282.4375 580 C 283.484375 580 284.328125 580.84375 284.328125 581.890625 C 284.328125 582.933594 283.484375 583.78125 282.4375 583.78125 " fill-opacity="1" fill-rule="nonzero"/><path fill="#5a3836" d="M 346.292969 478.46875 C 343.445312 478.46875 341.128906 476.15625 341.128906 473.308594 C 341.128906 470.457031 343.445312 468.144531 346.292969 468.144531 C 349.148438 468.144531 351.457031 470.457031 351.457031 473.308594 C 351.457031 476.15625 349.148438 478.46875 346.292969 478.46875 " fill-opacity="1" fill-rule="nonzero"/><path fill="#5a3836" d="M 315.804688 462.179688 C 313.9375 462.179688 312.421875 460.664062 312.421875 458.796875 C 312.421875 456.929688 313.9375 455.414062 315.804688 455.414062 C 317.671875 455.414062 319.1875 456.929688 319.1875 458.796875 C 319.1875 460.664062 317.671875 462.179688 315.804688 462.179688 " fill-opacity="1" fill-rule="nonzero"/><path fill="#5a3836" d="M 287.722656 480.527344 C 286.726562 480.527344 285.917969 479.714844 285.917969 478.722656 C 285.917969 477.726562 286.726562 476.917969 287.722656 476.917969 C 288.714844 476.917969 289.523438 477.726562 289.523438 478.722656 C 289.523438 479.714844 288.714844 480.527344 287.722656 480.527344 " fill-opacity="1" fill-rule="nonzero"/><path fill="#5a3836" d="M 287.441406 490.574219 C 286.351562 490.574219 285.476562 489.695312 285.476562 488.609375 C 285.476562 487.527344 286.351562 486.644531 287.441406 486.644531 C 288.523438 486.644531 289.40625 487.527344 289.40625 488.609375 C 289.40625 489.695312 288.523438 490.574219 287.441406 490.574219 " fill-opacity="1" fill-rule="nonzero"/><path fill="#5a3836" d="M 345.992188 234.394531 C 344.390625 234.394531 343.089844 233.097656 343.089844 231.496094 C 343.089844 229.894531 344.390625 228.59375 345.992188 228.59375 C 347.59375 228.59375 348.890625 229.894531 348.890625 231.496094 C 348.890625 233.097656 347.59375 234.394531 345.992188 234.394531 " fill-opacity="1" fill-rule="nonzero"/><path fill="#5a3836" d="M 267.058594 217.660156 C 265.199219 217.660156 263.691406 216.152344 263.691406 214.292969 C 263.691406 212.433594 265.199219 210.925781 267.058594 210.925781 C 268.917969 210.925781 270.425781 212.433594 270.425781 214.292969 C 270.425781 216.152344 268.917969 217.660156 267.058594 217.660156 " fill-opacity="1" fill-rule="nonzero"/><path fill="#5a3836" d="M 348.890625 257.503906 C 347.753906 257.503906 346.835938 256.582031 346.835938 255.453125 C 346.835938 254.316406 347.753906 253.394531 348.890625 253.394531 C 350.027344 253.394531 350.949219 254.316406 350.949219 255.453125 C 350.949219 256.582031 350.027344 257.503906 348.890625 257.503906 " fill-opacity="1" fill-rule="nonzero"/><path fill="#5a3836" d="M 335.621094 281.527344 C 334.898438 281.527344 334.3125 280.9375 334.3125 280.214844 C 334.3125 279.492188 334.898438 278.90625 335.621094 278.90625 C 336.347656 278.90625 336.933594 279.492188 336.933594 280.214844 C 336.933594 280.9375 336.347656 281.527344 335.621094 281.527344 " fill-opacity="1" fill-rule="nonzero"/><path fill="#5a3836" d="M 262.257812 282.011719 C 261.269531 282.011719 260.46875 281.210938 260.46875 280.214844 C 260.46875 279.226562 261.269531 278.421875 262.257812 278.421875 C 263.253906 278.421875 264.054688 279.226562 264.054688 280.214844 C 264.054688 281.210938 263.253906 282.011719 262.257812 282.011719 " fill-opacity="1" fill-rule="nonzero"/><path fill="#5a3836" d="M 291.40625 269.28125 C 289.851562 269.28125 288.601562 268.027344 288.601562 266.476562 C 288.601562 264.929688 289.851562 263.671875 291.40625 263.671875 C 292.953125 263.671875 294.210938 264.929688 294.210938 266.476562 C 294.210938 268.027344 292.953125 269.28125 291.40625 269.28125 " fill-opacity="1" fill-rule="nonzero"/><path fill="#5a3836" d="M 290.890625 249.332031 C 289.34375 249.332031 288.085938 248.074219 288.085938 246.523438 C 288.085938 244.972656 289.34375 243.71875 290.890625 243.71875 C 292.4375 243.71875 293.695312 244.972656 293.695312 246.523438 C 293.695312 248.074219 292.4375 249.332031 290.890625 249.332031 " fill-opacity="1" fill-rule="nonzero"/><path fill="#5a3836" d="M 304.230469 286.730469 C 303.300781 286.730469 302.546875 285.980469 302.546875 285.046875 C 302.546875 284.121094 303.300781 283.363281 304.230469 283.363281 C 305.15625 283.363281 305.914062 284.121094 305.914062 285.046875 C 305.914062 285.980469 305.15625 286.730469 304.230469 286.730469 " fill-opacity="1" fill-rule="nonzero"/><path fill="#5a3836" d="M 318.066406 232.496094 C 314.660156 232.496094 311.894531 229.734375 311.894531 226.324219 C 311.894531 222.914062 314.660156 220.152344 318.066406 220.152344 C 321.476562 220.152344 324.242188 222.914062 324.242188 226.324219 C 324.242188 229.734375 321.476562 232.496094 318.066406 232.496094 " fill-opacity="1" fill-rule="nonzero"/><path fill="#5a3836" d="M 334.3125 268.160156 C 333.386719 268.160156 332.628906 267.40625 332.628906 266.476562 C 332.628906 265.550781 333.386719 264.792969 334.3125 264.792969 C 335.246094 264.792969 335.996094 265.550781 335.996094 266.476562 C 335.996094 267.40625 335.246094 268.160156 334.3125 268.160156 " fill-opacity="1" fill-rule="nonzero"/><path fill="#5a3836" d="M 273.121094 240.160156 C 271.878906 240.160156 270.875 239.15625 270.875 237.917969 C 270.875 236.683594 271.878906 235.671875 273.121094 235.671875 C 274.355469 235.671875 275.363281 236.683594 275.363281 237.917969 C 275.363281 239.15625 274.355469 240.160156 273.121094 240.160156 " fill-opacity="1" fill-rule="nonzero"/><path fill="#570c0b" d="M 343.730469 199.84375 L 264.449219 199.84375 C 264.453125 199.746094 264.476562 199.644531 264.53125 199.558594 L 264.535156 199.554688 L 264.6875 199.382812 C 267.195312 197.609375 283.882812 196.234375 304.089844 196.234375 C 324.296875 196.234375 340.984375 197.609375 343.492188 199.382812 L 343.644531 199.554688 L 343.648438 199.558594 C 343.703125 199.644531 343.726562 199.746094 343.730469 199.84375 " fill-opacity="1" fill-rule="nonzero"/><path fill="#560b0a" d="M 304.089844 203.453125 C 283.839844 203.453125 267.132812 202.078125 264.671875 200.300781 C 264.519531 200.195312 264.449219 200.027344 264.449219 199.855469 C 264.449219 199.847656 264.449219 199.847656 264.449219 199.84375 L 343.730469 199.84375 C 343.730469 199.847656 343.730469 199.847656 343.730469 199.855469 C 343.730469 200.027344 343.660156 200.195312 343.507812 200.300781 C 341.046875 202.078125 324.339844 203.453125 304.089844 203.453125 " fill-opacity="1" fill-rule="nonzero"/><g clip-path="url(#a2e2d1c902)"><path fill="#fdfffe" d="M 391.613281 395.261719 L 391.613281 407.371094 C 391.613281 407.371094 356.117188 394.265625 312.816406 404.214844 C 271.085938 413.808594 226.433594 403.066406 216.566406 400.042969 L 216.566406 381.011719 C 226.046875 386.757812 266.441406 408.644531 320.941406 401.5625 C 383.484375 393.4375 376.59375 392.945312 391.613281 395.261719 " fill-opacity="1" fill-rule="nonzero"/></g></svg>