<svg xmlns="http://www.w3.org/2000/svg" xmlns:xlink="http://www.w3.org/1999/xlink" width="816" zoomAndPan="magnify" viewBox="0 0 612 791.999994" height="1056" preserveAspectRatio="xMidYMid meet" version="1.0"><defs><clipPath id="9e479732cb"><path d="M 47.957031 85.570312 L 550.457031 85.570312 L 550.457031 690.820312 L 47.957031 690.820312 Z M 47.957031 85.570312 " clip-rule="nonzero"/></clipPath><clipPath id="be2800adfe"><path d="M 197 85.570312 L 318 85.570312 L 318 234 L 197 234 Z M 197 85.570312 " clip-rule="nonzero"/></clipPath><clipPath id="d8f6753e80"><path d="M 148 85.570312 L 313 85.570312 L 313 242 L 148 242 Z M 148 85.570312 " clip-rule="nonzero"/></clipPath><clipPath id="b94fdcd9b8"><path d="M 197 85.570312 L 285 85.570312 L 285 195 L 197 195 Z M 197 85.570312 " clip-rule="nonzero"/></clipPath><clipPath id="346dda7f06"><path d="M 138 621 L 367 621 L 367 690.820312 L 138 690.820312 Z M 138 621 " clip-rule="nonzero"/></clipPath><clipPath id="8b2e368e19"><path d="M 335 660 L 388 660 L 388 690.820312 L 335 690.820312 Z M 335 660 " clip-rule="nonzero"/></clipPath><clipPath id="b083c5373c"><path d="M 296 236 L 550.457031 236 L 550.457031 690.820312 L 296 690.820312 Z M 296 236 " clip-rule="nonzero"/></clipPath><clipPath id="e1b970fa81"><path d="M 335 660 L 388 660 L 388 690.820312 L 335 690.820312 Z M 335 660 " clip-rule="nonzero"/></clipPath></defs><g clip-path="url(#9e479732cb)"><path stroke-linecap="butt" transform="matrix(0.355752, 0, 0, 0.356186, -54.536515, 30.317992)" fill="none" stroke-linejoin="miter" d="M 1047.794705 617.321594 C 1052.373472 596.287105 1064.517635 574.737173 1074.948877 555.106446 C 1092.220819 522.633495 1114.5876 494.865338 1142.049219 471.791009 C 1157.13609 459.091354 1173.738237 450.997792 1188.93491 442.487488 C 1200.321435 436.093793 1212.048348 426.146827 1211.213849 412.876894 C 1209.402107 383.715943 1182.698125 355.234938 1158.717247 341.361827 C 1134.022652 327.104874 1120.220471 339.014913 1103.925772 356.485163 C 1071.797544 390.844419 1045.993944 429.096919 1026.50399 471.220731 C 1026.284385 471.780042 1025.746352 472.130982 1025.142438 472.130982 C 1024.35186 472.130982 1023.693045 471.494903 1023.671084 470.69432 C 1013.162979 297.867154 890.809992 195.041626 727.094381 167.997283 C 690.387387 161.943562 649.024764 159.212807 603.017494 159.794052 C 599.262246 159.83792 596.736787 160.18886 595.452098 160.846873 C 592.432527 162.360304 591.191758 164.762052 591.751751 168.030184 C 598.625391 209.210843 606.366472 249.459317 614.964012 288.786572 C 641.481329 410.332576 701.26882 510.855059 820.657139 555.599956 C 875.953706 576.283504 930.942826 576.129968 988.68799 563.726419 C 988.797792 563.704485 988.918575 563.693518 989.028378 563.693518 C 989.939739 563.693518 990.686396 564.450233 990.686396 565.360485 C 990.686396 565.470154 990.675416 565.59079 990.653456 565.700459 L 980.672403 614.634706 C 980.244173 616.751316 978.289688 618.253779 976.093637 618.155077 C 963.466343 617.518998 922.93822 612.594866 854.509267 603.360747 C 700.357459 582.56753 555.483967 612.33166 447.624917 731.947492 C 321.121393 872.257839 291.924893 1081.538936 325.7331 1261.702949 C 356.313112 1424.484447 427.651832 1566.659164 539.749261 1688.260003 C 583.615382 1735.867257 633.773189 1775.23838 690.222683 1806.373371 C 744.23456 1836.21427 810.983534 1849.451302 870.661223 1833.406747 C 880.642275 1830.708893 903.217681 1823.766853 938.387439 1812.569662 C 963.751829 1804.4761 992.267553 1802.140153 1023.93461 1805.539888 C 1042.469282 1807.546828 1064.177247 1815.333318 1083.381714 1820.78386 C 1101.444234 1825.872496 1116.278559 1829.76574 1127.89567 1832.463594 C 1203.835117 1850.131249 1273.878167 1829.019992 1338.43109 1788.903121 C 1377.54276 1764.589533 1413.557998 1735.077642 1446.487785 1700.367446 C 1552.985283 1587.989759 1624.905957 1458.734033 1662.271767 1312.578336 C 1696.497224 1178.541048 1696.76075 1041.147893 1655.694594 910.828379 C 1625.89418 816.28285 1572.683862 732.287466 1492.473095 673.022411 C 1412.78938 614.185064 1307.653433 592.097755 1209.281324 600.904164 C 1168.335951 604.556138 1124.865119 609.699608 1078.846868 616.334574 C 1070.77638 617.497064 1060.960032 618.440216 1049.386843 619.174998 C 1049.364882 619.174998 1049.342922 619.174998 1049.320961 619.174998 C 1048.475481 619.174998 1047.772745 618.473117 1047.772745 617.6177 C 1047.772745 617.518998 1047.783725 617.420296 1047.794705 617.321594 " stroke="#818181" stroke-width="7.56" stroke-opacity="1" stroke-miterlimit="4"/></g><g clip-path="url(#be2800adfe)"><path stroke-linecap="butt" transform="matrix(0.355752, 0, 0, 0.356186, -54.536515, 30.317992)" fill="none" stroke-linejoin="miter" d="M 909.728972 417.82296 C 941.297207 452.116414 970.834094 488.022001 998.339634 525.528753 C 998.712963 526.022263 999.294917 526.318369 999.909811 526.318369 C 1000.876073 526.318369 1001.710573 525.594554 1001.853316 524.629468 C 1009.286949 463.532943 998.855706 405.583914 970.537627 350.771415 C 927.088756 266.589594 843.47411 213.608565 751.492509 196.017679 " stroke="#243418" stroke-width="7.56" stroke-opacity="1" stroke-miterlimit="4"/></g><g clip-path="url(#d8f6753e80)"><path stroke-linecap="butt" transform="matrix(0.355752, 0, 0, 0.356186, -54.536515, 30.317992)" fill="none" stroke-linejoin="miter" d="M 751.492509 196.017679 C 709.339308 185.105626 664.056734 179.940223 615.655768 180.510501 C 614.90911 180.521468 614.305196 181.135613 614.305196 181.881362 C 614.305196 181.947163 614.316177 182.023931 614.327157 182.100699 C 623.407828 234.116643 634.981018 285.02493 649.046725 334.814595 C 664.166537 388.289134 692.122267 441.050826 733.869199 477.658293 C 783.906224 521.602608 849.139922 552.463426 916.273204 550.79646 C 939.309781 550.215215 963.268698 547.681864 988.127997 543.196407 C 988.797792 543.064805 989.280924 542.472593 989.280924 541.781679 C 989.280924 541.518474 989.204062 541.266235 989.072299 541.035931 C 944.185014 468.68738 883.145773 405.803252 821.612421 350.277905 C 777.867083 310.77518 731.782951 276.942335 683.349043 248.77937 C 682.909833 248.494231 682.756109 247.923953 683.008655 247.496244 L 683.689431 246.355688 C 684.05178 245.708642 684.875299 245.456403 685.534114 245.78541 C 712.292997 259.450151 730.805708 269.802892 741.094207 276.843633 C 801.880902 318.232663 858.08883 365.236739 909.728972 417.82296 " stroke="#31451f" stroke-width="7.56" stroke-opacity="1" stroke-miterlimit="4"/></g><g clip-path="url(#b94fdcd9b8)"><path stroke-linecap="butt" transform="matrix(0.355752, 0, 0, 0.356186, -54.536515, 30.317992)" fill="none" stroke-linejoin="miter" d="M 751.492509 196.017679 C 765.975466 212.961518 780.348621 218.752034 798.048793 227.788749 C 822.820249 240.378735 839.762784 260.799078 856.595515 280.846546 C 865.873831 291.912135 873.505109 303.251896 879.511309 314.843895 C 897.024816 348.841243 909.004275 380.042035 909.728972 417.82296 " stroke="#527635" stroke-width="7.56" stroke-opacity="1" stroke-miterlimit="4"/></g><path stroke-linecap="butt" transform="matrix(0.355752, 0, 0, 0.356186, -54.536515, 30.317992)" fill="none" stroke-linejoin="miter" d="M 1137.261828 356.890938 C 1132.562278 361.200924 1140.764529 377.903493 1155.42317 393.90418 C 1170.081812 409.904868 1186.014162 419.522827 1190.713712 415.223808 C 1195.402281 410.924788 1187.21101 394.211253 1172.541389 378.210565 C 1157.882748 362.209878 1141.961377 352.591918 1137.261828 356.890938 " stroke="#361f13" stroke-width="7.56" stroke-opacity="1" stroke-miterlimit="4"/><path stroke-linecap="butt" transform="matrix(0.355752, 0, 0, 0.356186, -54.536515, 30.317992)" fill="none" stroke-linejoin="miter" d="M 1087.323625 411.922775 C 1084.271114 416.463066 1081.042919 420.948522 1077.63904 425.390112 C 1049.573507 461.942745 1029.787086 501.829311 1018.268798 545.049811 C 1009.561456 577.56663 1003.423493 604.501303 999.843929 625.831898 C 996.033781 648.390783 994.968696 676.904689 996.626715 711.373613 C 996.769458 713.906964 998.888647 715.913904 1001.425086 715.913904 C 1001.633711 715.913904 1001.842336 715.902937 1002.039981 715.870037 L 1006.080715 715.376527 C 1008.584213 715.069454 1010.516738 712.985745 1010.62654 710.463361 C 1012.76769 661.178173 1024.37382 612.901938 1045.455911 565.656591 C 1050.045658 555.369651 1055.689509 545.258182 1062.398445 535.33315 C 1079.439802 510.087377 1097.139974 487.528491 1115.498961 467.634559 C 1129.861136 452.050613 1148.000518 439.054852 1169.917108 428.647277 C 1171.048074 428.109899 1171.783751 426.958376 1171.783751 425.697184 C 1171.783751 424.523727 1171.135916 423.427039 1170.103772 422.856761 C 1147.561307 410.244841 1133.221094 392.56622 1127.072151 369.798963 C 1126.775684 368.669374 1125.74354 367.868791 1124.579633 367.868791 C 1123.931798 367.868791 1123.305923 368.110063 1122.833772 368.548738 C 1111.183721 379.25242 1097.754868 396.349796 1087.323625 411.922775 " stroke="#361f13" stroke-width="7.56" stroke-opacity="1" stroke-miterlimit="4"/><g clip-path="url(#346dda7f06)"><path stroke-linecap="butt" transform="matrix(0.355752, 0, 0, 0.356186, -54.536515, 30.317992)" fill="none" stroke-linejoin="miter" d="M 584.153415 1701.606704 C 629.875199 1744.871071 685.687838 1784.626035 745.749836 1806.252736 C 777.438853 1817.680231 805.163998 1820.400019 838.928284 1817.186721 C 849.49129 1816.177768 867.356166 1811.714245 892.522912 1803.796153 C 915.866935 1796.437372 933.611028 1791.33777 945.766171 1788.51928 C 982.956296 1779.943175 1020.618573 1780.721824 1058.774961 1790.866194 C 1085.973054 1798.126273 1113.050364 1805.221848 1140.006892 1812.152921 " stroke="#5b1413" stroke-width="7.56" stroke-opacity="1" stroke-miterlimit="4"/></g><g clip-path="url(#8b2e368e19)"><path stroke-linecap="butt" transform="matrix(0.355752, 0, 0, 0.356186, -54.536515, 30.317992)" fill="none" stroke-linejoin="miter" d="M 1140.006892 1812.163887 C 1160.078799 1817.449927 1180.359331 1818.239543 1200.859468 1814.499834 " stroke="#361f13" stroke-width="7.56" stroke-opacity="1" stroke-miterlimit="4"/></g><g clip-path="url(#b083c5373c)"><path stroke-linecap="butt" transform="matrix(0.355752, 0, 0, 0.356186, -54.536515, 30.317992)" fill="none" stroke-linejoin="miter" d="M 1200.848488 1814.499834 C 1249.897289 1813.172841 1300.724892 1789.879174 1340.967529 1761.288501 C 1406.278089 1714.920504 1461.453873 1658.912614 1509.152103 1591.904937 C 1584.300972 1486.260919 1632.888603 1371.45955 1654.904015 1247.489864 C 1667.685033 1175.437419 1669.046585 1099.129822 1661.294524 1032.977562 C 1655.431068 983.253698 1640.871249 936.732166 1624.14832 888.433997 C 1607.063042 838.973339 1581.402185 794.118772 1547.187708 753.881265 C 1477.331323 671.684451 1387.765378 627.827871 1278.489875 622.311527 C 1240.849559 620.392322 1209.039758 621.247739 1183.071454 624.877779 C 1113.939765 634.528639 1087.060099 639.397936 1040.69048 642.051923 C 1039.065402 642.139658 1037.703851 643.367949 1037.440324 645.002015 L 1028.809844 696.436714 " stroke="#5b1413" stroke-width="7.56" stroke-opacity="1" stroke-miterlimit="4"/></g><path stroke-linecap="butt" transform="matrix(0.355752, 0, 0, 0.356186, -54.536515, 30.317992)" fill="none" stroke-linejoin="miter" d="M 1028.820824 696.436714 L 1027.228687 715.946805 C 1027.228687 715.990672 1027.228687 716.023573 1027.228687 716.067441 C 1027.206726 717.087361 1028.052206 717.931811 1029.08435 717.953745 C 1029.117291 717.953745 1029.161212 717.953745 1029.194153 717.953745 C 1088.147145 714.806249 1145.299375 702.545269 1200.661823 681.192741 C 1200.815547 681.137907 1200.980251 681.105006 1201.133974 681.105006 C 1201.726908 681.105006 1202.24298 681.499814 1202.407684 682.059125 L 1202.781013 683.429986 C 1203.143361 684.592476 1202.616309 685.853668 1201.540244 686.412979 C 1119.945965 729.249638 1033.421551 744.10977 941.956022 731.00434 C 894.499358 724.193903 849.293646 707.590037 806.338886 681.192741 C 805.833794 680.874701 805.625169 680.238622 805.844774 679.679311 L 806.218103 678.65939 C 806.229083 678.62649 806.251044 678.593589 806.262024 678.560688 C 806.701234 677.628503 807.82122 677.200794 808.732581 677.628503 C 808.765522 677.650437 808.798463 677.661404 808.831404 677.672371 C 862.151525 705.056686 918.128868 713.797295 977.9493 717.953745 C 978.015181 717.953745 978.070083 717.953745 978.124984 717.953745 C 979.080266 717.931811 979.848884 717.142195 979.826924 716.21001 C 979.815943 716.144209 979.815943 716.089374 979.804963 716.023573 C 977.136761 691.797721 976.631669 667.714438 978.289688 643.795658 C 978.421451 641.854519 976.972057 640.154652 975.039532 639.968215 C 946.853216 637.347129 917.78848 633.892559 887.834343 629.615474 C 814.541137 619.174998 735.834665 613.910892 660.960302 630.251553 C 636.199826 635.647261 607.815865 645.923234 575.79744 661.079471 C 502.427372 695.789667 442.563019 760.987808 404.285848 831.110081 C 371.356062 891.362156 350.438675 956.23129 341.544668 1025.717483 C 327.929151 1132.216919 335.736113 1235.020514 364.954573 1334.128268 C 375.166211 1368.695894 385.707256 1399.359309 396.566729 1426.107546 C 405.669361 1448.490961 420.207219 1477.443542 440.180304 1512.932387 C 481.542926 1586.553097 529.537623 1649.448191 584.153415 1701.617671 " stroke="#6f1816" stroke-width="7.56" stroke-opacity="1" stroke-miterlimit="4"/><path stroke-linecap="butt" transform="matrix(0.355752, 0, 0, 0.356186, -54.536515, 30.317992)" fill="none" stroke-linejoin="miter" d="M 1028.820824 696.436714 C 1037.286601 677.924609 1043.655149 666.365511 1047.915488 661.759418 C 1058.31379 650.518359 1071.402255 648.36885 1086.489126 647.041856 C 1105.704573 645.418757 1126.885486 639.10183 1144.508796 638.005142 C 1155.653756 637.303261 1167.183024 637.665168 1179.107582 639.10183 C 1182.094211 639.452771 1184.992999 640.275287 1187.694142 641.525512 C 1214.870274 654.334836 1239.806434 668.525987 1262.502623 684.109933 C 1279.664762 695.910303 1292.808128 706.986858 1301.91076 717.350566 C 1358.404175 781.759091 1389.950449 864.800356 1403.104795 951.855502 C 1418.993225 1057.302117 1407.6067 1170.18428 1376.565517 1272.220193 C 1348.994096 1362.795709 1312.912976 1448.951571 1257.693271 1524.250214 C 1201.232797 1601.171956 1138.952787 1663.759978 1053.438557 1700.553883 C 1009.77008 1719.384027 970.878015 1732.434622 936.773342 1739.694701 C 872.527866 1753.381375 802.847165 1754.752236 727.709276 1743.78535 C 702.487629 1740.111443 680.933387 1731.98498 648.936922 1722.487656 C 631.159889 1717.234517 606.684899 1706.607604 584.153415 1701.617671 " stroke="#c72926" stroke-width="7.56" stroke-opacity="1" stroke-miterlimit="4"/><g clip-path="url(#e1b970fa81)"><path stroke-linecap="butt" transform="matrix(0.355752, 0, 0, 0.356186, -54.536515, 30.317992)" fill="none" stroke-linejoin="miter" d="M 1200.848488 1814.499834 L 1184.707512 1815.256549 L 1184.367124 1815.256549 L 1139.995911 1812.152921 " stroke="#8f3023" stroke-width="7.56" stroke-opacity="1" stroke-miterlimit="4"/></g><path stroke-linecap="butt" transform="matrix(0.355752, 0, 0, 0.356186, -54.536515, 30.317992)" fill="none" stroke-linejoin="miter" d="M 706.978553 787.308336 C 660.466191 759.101504 609.375062 774.455145 575.676657 816.173181 C 528.911749 874.111243 501.955221 939.791927 494.818055 1013.237166 C 493.412583 1027.713457 493.884734 1038.493906 496.256469 1045.578515 C 506.654771 1076.581903 550.674615 1084.719333 576.544097 1073.412473 C 591.718811 1066.777507 601.315554 1056.523468 605.323347 1042.628422 C 612.054244 1019.279921 619.290232 998.793777 627.031313 981.16999 C 639.966054 951.636164 665.648871 919.294816 693.297155 895.134765 C 713.643568 877.357442 737.34994 854.590185 731.903733 825.922743 C 728.576716 808.222189 720.264662 795.358031 706.978553 787.308336 " stroke="#e66661" stroke-width="7.56" stroke-opacity="1" stroke-miterlimit="4"/><path stroke-linecap="butt" transform="matrix(0.355752, 0, 0, 0.356186, -54.536515, 30.317992)" fill="none" stroke-linejoin="miter" d="M 585.921236 1157.967169 C 568.188123 1138.983488 530.66859 1138.983488 508.202987 1147.263487 C 497.541159 1151.2006 494.181201 1160.730824 495.158443 1171.094532 C 499.627407 1217.605098 509.454736 1264.993015 528.022348 1306.711051 C 537.860657 1328.776427 553.760067 1335.060453 575.709598 1325.585063 C 583.274994 1322.327898 588.578458 1317.261196 591.598028 1310.373992 C 593.486632 1306.020138 594.28819 1298.540721 593.980743 1287.946709 C 592.1141 1224.514236 591.290581 1188.071272 591.521166 1178.617816 C 591.718811 1169.065658 589.863147 1162.178453 585.921236 1157.967169 " stroke="#e66661" stroke-width="7.56" stroke-opacity="1" stroke-miterlimit="4"/><path fill="#5f863b" d="M 212.808594 100.136719 C 217.960938 106.171875 223.074219 108.234375 229.371094 111.453125 C 238.183594 115.9375 244.210938 123.210938 250.199219 130.351562 C 253.5 134.292969 256.214844 138.332031 258.351562 142.460938 C 264.582031 154.570312 268.84375 165.683594 269.101562 179.140625 C 250.730469 160.410156 230.734375 143.667969 209.109375 128.925781 C 205.449219 126.417969 198.863281 122.730469 189.34375 117.863281 C 189.109375 117.746094 188.816406 117.835938 188.6875 118.066406 L 188.445312 118.472656 C 188.355469 118.625 188.410156 118.828125 188.566406 118.929688 C 205.796875 128.960938 222.191406 141.011719 237.753906 155.082031 C 259.644531 174.859375 281.359375 197.257812 297.328125 223.027344 C 297.375 223.109375 297.402344 223.199219 297.402344 223.292969 C 297.402344 223.539062 297.230469 223.75 296.992188 223.796875 C 288.148438 225.394531 279.625 226.296875 271.429688 226.503906 C 247.546875 227.097656 224.339844 216.105469 206.539062 200.453125 C 191.6875 187.414062 181.742188 168.621094 176.363281 149.574219 C 171.359375 131.839844 167.242188 113.707031 164.011719 95.179688 C 164.007812 95.152344 164.003906 95.125 164.003906 95.101562 C 164.003906 94.835938 164.21875 94.617188 164.484375 94.613281 C 181.703125 94.410156 197.8125 96.25 212.808594 100.136719 Z M 212.808594 100.136719 " fill-opacity="1" fill-rule="nonzero"/><path fill="#db2d29" d="M 311.46875 278.378906 C 314.480469 271.785156 316.746094 267.667969 318.261719 266.027344 C 321.960938 262.023438 326.617188 261.257812 331.984375 260.785156 C 338.820312 260.207031 346.355469 257.957031 352.625 257.566406 C 356.589844 257.316406 360.691406 257.445312 364.933594 257.957031 C 365.996094 258.082031 367.027344 258.375 367.988281 258.820312 C 377.65625 263.382812 386.527344 268.4375 394.601562 273.988281 C 400.707031 278.191406 405.382812 282.136719 408.621094 285.828125 C 428.71875 308.769531 439.941406 338.347656 444.621094 369.355469 C 450.273438 406.914062 446.222656 447.121094 435.179688 483.464844 C 425.371094 515.726562 412.535156 546.414062 392.890625 573.234375 C 372.804688 600.632812 350.648438 622.925781 320.226562 636.03125 C 304.691406 642.738281 290.855469 647.386719 278.722656 649.972656 C 255.867188 654.847656 231.078125 655.335938 204.347656 651.429688 C 195.375 650.121094 187.707031 647.226562 176.324219 643.84375 C 170 641.972656 161.292969 638.1875 153.277344 636.410156 C 133.847656 617.828125 116.773438 595.425781 102.058594 569.203125 C 94.953125 556.558594 89.78125 546.25 86.542969 538.277344 C 82.679688 528.75 78.929688 517.828125 75.296875 505.515625 C 64.902344 470.214844 62.125 433.597656 66.96875 395.664062 C 70.132812 370.914062 77.574219 347.808594 89.289062 326.347656 C 102.90625 301.371094 124.203125 278.148438 150.300781 265.785156 C 161.695312 260.386719 171.792969 256.726562 180.601562 254.804688 C 207.238281 248.984375 235.238281 250.859375 261.3125 254.574219 C 271.96875 256.101562 282.308594 257.332031 292.335938 258.265625 C 293.023438 258.332031 293.539062 258.9375 293.492188 259.628906 C 292.902344 268.148438 293.082031 276.726562 294.03125 285.355469 C 294.035156 285.378906 294.035156 285.398438 294.039062 285.421875 C 294.046875 285.753906 293.773438 286.035156 293.433594 286.042969 C 293.414062 286.042969 293.394531 286.042969 293.371094 286.042969 C 272.089844 284.5625 252.175781 281.449219 233.207031 271.695312 C 233.195312 271.691406 233.183594 271.6875 233.171875 271.679688 C 232.847656 271.527344 232.449219 271.679688 232.292969 272.011719 C 232.289062 272.023438 232.28125 272.035156 232.277344 272.046875 L 232.144531 272.410156 C 232.066406 272.609375 232.140625 272.835938 232.320312 272.949219 C 247.601562 282.351562 263.683594 288.265625 280.566406 290.691406 C 313.105469 295.359375 343.886719 290.066406 372.914062 274.808594 C 373.296875 274.609375 373.484375 274.15625 373.355469 273.746094 L 373.222656 273.257812 C 373.164062 273.058594 372.980469 272.917969 372.769531 272.917969 C 372.714844 272.917969 372.65625 272.929688 372.601562 272.949219 C 352.90625 280.554688 332.574219 284.921875 311.601562 286.042969 C 311.589844 286.042969 311.574219 286.042969 311.5625 286.042969 C 311.195312 286.035156 310.894531 285.734375 310.902344 285.371094 C 310.902344 285.355469 310.902344 285.34375 310.902344 285.328125 Z M 196.976562 310.746094 C 180.425781 300.699219 162.25 306.167969 150.261719 321.027344 C 133.625 341.664062 124.035156 365.058594 121.496094 391.21875 C 120.996094 396.375 121.164062 400.214844 122.007812 402.738281 C 125.707031 413.78125 141.371094 416.679688 150.570312 412.652344 C 155.972656 410.289062 159.382812 406.636719 160.808594 401.6875 C 163.207031 393.371094 165.78125 386.074219 168.53125 379.796875 C 173.132812 369.277344 182.269531 357.757812 192.105469 349.152344 C 199.34375 342.820312 207.777344 334.710938 205.839844 324.5 C 204.65625 318.195312 201.703125 313.613281 196.976562 310.746094 Z M 153.910156 442.769531 C 147.597656 436.007812 134.253906 436.007812 126.261719 438.960938 C 122.464844 440.359375 121.269531 443.753906 121.617188 447.445312 C 123.207031 464.015625 126.703125 480.894531 133.308594 495.75 C 136.808594 503.609375 142.464844 505.847656 150.277344 502.472656 C 152.964844 501.3125 154.851562 499.507812 155.925781 497.058594 C 156.597656 495.503906 156.882812 492.839844 156.773438 489.070312 C 156.109375 466.476562 155.820312 453.492188 155.898438 450.125 C 155.972656 446.722656 155.308594 444.269531 153.910156 442.769531 Z M 153.910156 442.769531 " fill-opacity="1" fill-rule="nonzero"/><path fill="#020302" d="M 318.21875 250.199219 C 318.214844 250.234375 318.210938 250.269531 318.210938 250.304688 C 318.210938 250.609375 318.457031 250.859375 318.761719 250.859375 C 318.769531 250.859375 318.777344 250.859375 318.785156 250.859375 C 322.902344 250.597656 326.394531 250.261719 329.265625 249.847656 C 345.636719 247.484375 361.101562 245.652344 375.667969 244.351562 C 410.664062 241.214844 448.066406 249.082031 476.414062 270.039062 C 504.949219 291.148438 523.878906 321.066406 534.480469 354.742188 C 549.089844 401.160156 548.996094 450.097656 536.820312 497.839844 C 523.527344 549.898438 497.941406 595.9375 460.054688 635.964844 C 448.339844 648.328125 435.527344 658.839844 421.613281 667.5 C 398.648438 681.789062 373.730469 689.308594 346.714844 683.015625 C 342.582031 682.054688 337.304688 680.667969 330.882812 678.855469 C 324.046875 676.914062 316.324219 674.140625 309.730469 673.425781 C 298.464844 672.214844 288.320312 673.046875 279.296875 675.929688 C 266.785156 679.917969 258.753906 682.390625 255.203125 683.351562 C 233.972656 689.066406 210.226562 684.351562 191.011719 673.722656 C 170.929688 662.632812 153.085938 648.609375 137.480469 631.652344 C 97.601562 588.339844 72.222656 537.699219 61.34375 479.71875 C 49.316406 415.546875 59.703125 341.003906 104.707031 291.027344 C 143.078125 248.421875 194.617188 237.820312 249.457031 245.226562 C 273.800781 248.515625 288.21875 250.269531 292.710938 250.496094 C 293.492188 250.53125 294.1875 249.996094 294.339844 249.242188 L 297.890625 231.8125 C 297.898438 231.773438 297.902344 231.730469 297.902344 231.691406 C 297.902344 231.367188 297.636719 231.097656 297.3125 231.097656 C 297.273438 231.097656 297.230469 231.101562 297.191406 231.109375 C 276.648438 235.527344 257.085938 235.582031 237.414062 228.214844 C 194.941406 212.277344 173.671875 176.472656 164.238281 133.179688 C 161.179688 119.171875 158.425781 104.835938 155.980469 90.167969 C 155.78125 89.003906 156.222656 88.148438 157.296875 87.609375 C 157.753906 87.375 158.652344 87.25 159.988281 87.234375 C 176.355469 87.027344 191.070312 88 204.128906 90.15625 C 262.371094 99.789062 305.898438 136.414062 309.636719 197.972656 C 309.644531 198.257812 309.878906 198.484375 310.160156 198.484375 C 310.375 198.484375 310.566406 198.359375 310.644531 198.160156 C 317.578125 183.15625 326.757812 169.53125 338.1875 157.292969 C 343.984375 151.070312 348.894531 146.828125 357.679688 151.90625 C 366.210938 156.847656 375.710938 166.992188 376.355469 177.378906 C 376.652344 182.105469 372.480469 185.648438 368.429688 187.925781 C 363.023438 190.957031 357.117188 193.839844 351.75 198.363281 C 341.980469 206.582031 334.023438 216.472656 327.878906 228.039062 C 324.167969 235.03125 319.847656 242.707031 318.21875 250.199219 Z M 269.101562 179.140625 C 280.328125 191.355469 290.835938 204.144531 300.621094 217.503906 C 300.753906 217.679688 300.960938 217.785156 301.179688 217.785156 C 301.527344 217.785156 301.824219 217.527344 301.875 217.183594 C 304.519531 195.421875 300.804688 174.78125 290.734375 155.257812 C 275.273438 125.273438 245.527344 106.402344 212.808594 100.136719 C 197.8125 96.25 181.703125 94.410156 164.480469 94.613281 C 164.21875 94.617188 164.003906 94.835938 164.003906 95.101562 C 164.003906 95.125 164.007812 95.152344 164.011719 95.179688 C 167.238281 113.707031 171.355469 131.839844 176.363281 149.574219 C 181.742188 168.621094 191.6875 187.414062 206.539062 200.453125 C 224.339844 216.105469 247.546875 227.097656 271.425781 226.503906 C 279.625 226.296875 288.144531 225.394531 296.988281 223.796875 C 297.226562 223.75 297.402344 223.539062 297.402344 223.292969 C 297.402344 223.199219 297.375 223.109375 297.328125 223.027344 C 281.355469 197.257812 259.640625 174.859375 237.753906 155.082031 C 222.191406 141.011719 205.792969 128.960938 188.5625 118.929688 C 188.40625 118.828125 188.355469 118.625 188.441406 118.472656 L 188.683594 118.066406 C 188.816406 117.835938 189.109375 117.746094 189.34375 117.863281 C 198.859375 122.730469 205.449219 126.417969 209.109375 128.925781 C 230.734375 143.667969 250.730469 160.410156 269.101562 179.140625 Z M 350.042969 157.4375 C 348.375 158.972656 351.289062 164.921875 356.507812 170.621094 C 361.722656 176.320312 367.386719 179.746094 369.058594 178.214844 C 370.730469 176.683594 367.8125 170.730469 362.597656 165.03125 C 357.378906 159.332031 351.714844 155.90625 350.042969 157.4375 Z M 332.28125 177.039062 C 331.195312 178.65625 330.046875 180.253906 328.835938 181.835938 C 318.851562 194.855469 311.8125 209.0625 307.714844 224.457031 C 304.617188 236.039062 302.433594 245.632812 301.160156 253.230469 C 299.804688 261.265625 299.425781 271.421875 300.015625 283.699219 C 300.066406 284.601562 300.820312 285.316406 301.722656 285.316406 C 301.796875 285.316406 301.871094 285.3125 301.941406 285.300781 L 303.378906 285.125 C 304.269531 285.015625 304.957031 284.273438 304.996094 283.375 C 305.757812 265.820312 309.886719 248.625 317.386719 231.796875 C 319.019531 228.132812 321.027344 224.53125 323.414062 220.996094 C 329.476562 212.003906 335.773438 203.96875 342.304688 196.882812 C 347.414062 191.332031 353.871094 186.703125 361.664062 182.996094 C 362.066406 182.804688 362.328125 182.394531 362.328125 181.945312 C 362.328125 181.527344 362.097656 181.136719 361.730469 180.933594 C 353.710938 176.441406 348.609375 170.144531 346.421875 162.035156 C 346.316406 161.632812 345.949219 161.347656 345.535156 161.347656 C 345.304688 161.347656 345.082031 161.433594 344.914062 161.589844 C 340.769531 165.402344 335.992188 171.492188 332.28125 177.039062 Z M 153.273438 636.410156 C 169.539062 651.820312 189.398438 665.976562 210.761719 673.683594 C 222.039062 677.75 231.898438 678.71875 243.914062 677.574219 C 247.671875 677.214844 254.027344 675.628906 262.976562 672.808594 C 271.285156 670.183594 277.597656 668.371094 281.921875 667.363281 C 295.152344 664.3125 308.550781 664.589844 322.121094 668.199219 C 331.800781 670.785156 341.433594 673.3125 351.023438 675.785156 C 358.160156 677.667969 365.378906 677.949219 372.667969 676.621094 C 390.117188 676.148438 408.199219 667.851562 422.515625 657.667969 C 445.75 641.152344 465.378906 621.203125 482.347656 597.332031 C 509.082031 559.703125 526.367188 518.8125 534.199219 474.65625 C 538.746094 448.996094 539.230469 421.8125 536.472656 398.253906 C 534.386719 380.539062 529.207031 363.972656 523.261719 346.769531 C 517.179688 329.148438 508.050781 313.171875 495.878906 298.839844 C 471.027344 269.566406 439.164062 253.945312 400.289062 251.976562 C 386.898438 251.296875 375.585938 251.601562 366.347656 252.894531 C 341.75 256.328125 332.1875 258.066406 315.691406 259.007812 C 315.113281 259.039062 314.628906 259.480469 314.535156 260.058594 L 311.464844 278.378906 L 310.902344 285.332031 C 310.898438 285.34375 310.898438 285.359375 310.898438 285.375 C 310.894531 285.734375 311.191406 286.039062 311.5625 286.042969 C 311.574219 286.046875 311.585938 286.042969 311.601562 286.042969 C 332.570312 284.921875 352.90625 280.558594 372.601562 272.949219 C 372.65625 272.929688 372.710938 272.921875 372.769531 272.921875 C 372.976562 272.921875 373.164062 273.058594 373.222656 273.261719 L 373.355469 273.746094 C 373.480469 274.160156 373.292969 274.609375 372.910156 274.808594 C 343.886719 290.066406 313.105469 295.363281 280.5625 290.691406 C 263.683594 288.265625 247.601562 282.355469 232.316406 272.949219 C 232.136719 272.835938 232.0625 272.609375 232.140625 272.414062 L 232.277344 272.046875 C 232.28125 272.039062 232.285156 272.027344 232.289062 272.015625 C 232.445312 271.679688 232.84375 271.53125 233.171875 271.683594 C 233.183594 271.6875 233.195312 271.691406 233.203125 271.699219 C 252.175781 281.449219 272.085938 284.5625 293.371094 286.042969 C 293.390625 286.046875 293.414062 286.046875 293.433594 286.046875 C 293.773438 286.035156 294.042969 285.757812 294.035156 285.421875 C 294.035156 285.402344 294.035156 285.378906 294.03125 285.355469 C 293.078125 276.726562 292.902344 268.152344 293.492188 259.628906 C 293.539062 258.941406 293.019531 258.332031 292.335938 258.269531 C 282.308594 257.335938 271.964844 256.105469 261.308594 254.578125 C 235.234375 250.859375 207.238281 248.988281 180.597656 254.804688 C 171.792969 256.726562 161.691406 260.386719 150.300781 265.785156 C 124.199219 278.152344 102.902344 301.375 89.285156 326.347656 C 77.574219 347.8125 70.132812 370.917969 66.96875 395.667969 C 62.125 433.597656 64.898438 470.214844 75.296875 505.519531 C 78.925781 517.828125 82.675781 528.75 86.542969 538.277344 C 89.78125 546.253906 94.953125 556.5625 102.054688 569.207031 C 116.773438 595.429688 133.847656 617.828125 153.273438 636.410156 Z M 153.273438 636.410156 " fill-opacity="1" fill-rule="nonzero"/><path fill="#45652e" d="M 269.101562 179.140625 C 268.84375 165.683594 264.582031 154.570312 258.351562 142.460938 C 256.214844 138.332031 253.5 134.292969 250.199219 130.351562 C 244.210938 123.210938 238.183594 115.9375 229.371094 111.453125 C 223.074219 108.234375 217.960938 106.171875 212.808594 100.136719 C 245.53125 106.402344 275.277344 125.273438 290.734375 155.257812 C 300.808594 174.78125 304.519531 195.421875 301.875 217.183594 C 301.824219 217.527344 301.527344 217.785156 301.183594 217.785156 C 300.964844 217.785156 300.757812 217.679688 300.625 217.503906 C 290.839844 204.144531 280.332031 191.355469 269.101562 179.140625 Z M 269.101562 179.140625 " fill-opacity="1" fill-rule="nonzero"/><path fill="#f09f99" d="M 150.261719 321.027344 C 162.25 306.167969 180.425781 300.699219 196.972656 310.746094 C 201.699219 313.613281 204.65625 318.195312 205.839844 324.5 C 207.777344 334.710938 199.34375 342.820312 192.105469 349.152344 C 182.269531 357.757812 173.132812 369.277344 168.53125 379.796875 C 165.777344 386.074219 163.203125 393.371094 160.808594 401.6875 C 159.382812 406.632812 155.96875 410.289062 150.570312 412.652344 C 141.367188 416.679688 125.707031 413.78125 122.007812 402.738281 C 121.164062 400.214844 120.996094 396.375 121.496094 391.21875 C 124.035156 365.058594 133.625 341.664062 150.261719 321.027344 Z M 150.261719 321.027344 " fill-opacity="1" fill-rule="nonzero"/><path fill="#f09f99" d="M 153.90625 442.769531 C 155.308594 444.269531 155.96875 446.722656 155.898438 450.125 C 155.816406 453.492188 156.109375 466.472656 156.773438 489.066406 C 156.882812 492.839844 156.597656 495.503906 155.925781 497.054688 C 154.851562 499.507812 152.964844 501.3125 150.273438 502.472656 C 142.464844 505.847656 136.808594 503.609375 133.308594 495.75 C 126.703125 480.890625 123.207031 464.011719 121.617188 447.445312 C 121.269531 443.753906 122.464844 440.359375 126.257812 438.957031 C 134.25 436.007812 147.597656 436.007812 153.90625 442.769531 Z M 153.90625 442.769531 " fill-opacity="1" fill-rule="nonzero"/><path fill="#b32423" d="M 372.667969 676.617188 L 366.925781 676.886719 L 366.804688 676.886719 L 351.019531 675.78125 C 341.433594 673.3125 331.800781 670.785156 322.121094 668.199219 C 308.550781 664.589844 295.152344 664.308594 281.921875 667.363281 C 277.597656 668.367188 271.285156 670.183594 262.976562 672.804688 C 254.027344 675.625 247.671875 677.214844 243.914062 677.574219 C 231.898438 678.71875 222.039062 677.75 210.761719 673.679688 C 189.398438 665.976562 169.539062 651.816406 153.273438 636.40625 C 161.292969 638.1875 169.996094 641.972656 176.320312 643.84375 C 187.703125 647.226562 195.371094 650.121094 204.34375 651.425781 C 231.074219 655.332031 255.867188 654.847656 278.71875 649.972656 C 290.855469 647.386719 304.691406 642.738281 320.226562 636.03125 C 350.644531 622.925781 372.804688 600.628906 392.890625 573.230469 C 412.53125 546.410156 425.367188 515.726562 435.175781 483.464844 C 446.222656 447.121094 450.273438 406.914062 444.621094 369.355469 C 439.9375 338.347656 428.71875 308.765625 408.617188 285.828125 C 405.378906 282.136719 400.707031 278.1875 394.597656 273.984375 C 386.527344 268.4375 377.65625 263.378906 367.988281 258.820312 C 367.023438 258.371094 365.992188 258.082031 364.933594 257.957031 C 360.691406 257.445312 356.585938 257.316406 352.621094 257.566406 C 346.351562 257.957031 338.820312 260.207031 331.984375 260.785156 C 326.617188 261.257812 321.960938 262.023438 318.261719 266.027344 C 316.746094 267.667969 314.480469 271.785156 311.464844 278.378906 L 314.535156 260.058594 C 314.628906 259.476562 315.113281 259.039062 315.691406 259.007812 C 332.1875 258.0625 341.75 256.328125 366.34375 252.890625 C 375.582031 251.597656 386.898438 251.292969 400.289062 251.976562 C 439.164062 253.941406 471.027344 269.5625 495.878906 298.839844 C 508.050781 313.171875 517.179688 329.148438 523.257812 346.765625 C 529.207031 363.96875 534.386719 380.539062 536.472656 398.25 C 539.230469 421.8125 538.746094 448.992188 534.199219 474.65625 C 526.367188 518.8125 509.082031 559.703125 482.347656 597.332031 C 465.378906 621.199219 445.75 641.148438 422.515625 657.664062 C 408.199219 667.847656 390.117188 676.144531 372.667969 676.617188 Z M 372.667969 676.617188 " fill-opacity="1" fill-rule="nonzero"/><path fill="#6a3b23" d="M 356.507812 170.621094 C 351.257812 164.886719 348.363281 158.980469 350.042969 157.4375 C 351.726562 155.894531 357.351562 159.300781 362.597656 165.03125 C 367.84375 170.765625 370.742188 176.671875 369.058594 178.214844 C 367.378906 179.757812 361.753906 176.355469 356.507812 170.621094 Z M 356.507812 170.621094 " fill-opacity="1" fill-rule="evenodd"/><path fill="#6a3b23" d="M 332.28125 177.039062 C 335.992188 171.492188 340.769531 165.402344 344.914062 161.589844 C 345.082031 161.433594 345.304688 161.347656 345.535156 161.347656 C 345.949219 161.347656 346.316406 161.632812 346.421875 162.035156 C 348.609375 170.144531 353.710938 176.441406 361.730469 180.933594 C 362.097656 181.136719 362.328125 181.527344 362.328125 181.945312 C 362.328125 182.394531 362.066406 182.804688 361.664062 182.996094 C 353.867188 186.703125 347.414062 191.332031 342.304688 196.882812 C 335.773438 203.96875 329.476562 212.003906 323.414062 220.996094 C 321.027344 224.53125 319.019531 228.132812 317.386719 231.796875 C 309.886719 248.625 305.757812 265.820312 304.996094 283.375 C 304.957031 284.273438 304.269531 285.015625 303.378906 285.128906 L 301.941406 285.300781 C 301.867188 285.3125 301.796875 285.316406 301.722656 285.316406 C 300.820312 285.316406 300.066406 284.601562 300.015625 283.699219 C 299.425781 271.421875 299.804688 261.265625 301.160156 253.230469 C 302.433594 245.632812 304.617188 236.039062 307.714844 224.457031 C 311.8125 209.0625 318.851562 194.855469 328.835938 181.835938 C 330.046875 180.253906 331.195312 178.65625 332.28125 177.039062 Z M 332.28125 177.039062 " fill-opacity="1" fill-rule="nonzero"/><path fill="#6a3b23" d="M 372.667969 676.617188 C 365.375 677.945312 358.160156 677.667969 351.019531 675.78125 L 366.804688 676.886719 L 366.921875 676.886719 Z M 372.667969 676.617188 " fill-opacity="1" fill-rule="nonzero"/></svg>